<svg width="40" height="40" viewBox="0 0 40 40" fill="current" xmlns="http://www.w3.org/2000/svg">
<path d="M1.70325 0.010143C1.18585 0.184047 0.739591 0.522502 0.432648 0.973813C0.125705 1.42512 -0.0250531 1.96448 0.0033996 2.50951V27.5032C0.0033996 28.166 0.266769 28.8018 0.73557 29.2705C1.20437 29.7392 1.8402 30.0025 2.50319 30.0025H15.0021V35.0013H10.0025C7.25278 35.0013 5.00297 37.2507 5.00297 40H35.0004C35.0004 37.2507 32.7506 35.0013 30.0008 35.0013H25.0013V30.0025H37.5002C38.1632 30.0025 38.799 29.7392 39.2678 29.2705C39.7366 28.8018 40 28.166 40 27.5032V2.50951C40 1.84664 39.7366 1.21091 39.2678 0.74219C38.799 0.273468 38.1632 0.010143 37.5002 0.010143L2.50319 0.010143C2.3535 -0.003381 2.20291 -0.00338101 2.05323 0.010143C1.95332 0.00413913 1.85315 0.00413913 1.75325 0.010143L1.70325 0.010143ZM5.00297 5.00887H35.0004V25.0038H5.00297V5.00887Z" fill="current"/>
</svg>
