<svg width="40" height="40" viewBox="0 0 40 40" fill="none" xmlns="http://www.w3.org/2000/svg">
<path id="Vector" d="M28.5426 21.7311C31.8277 23.1615 34.6287 25.3879 36.6459 28.1719C38.663 30.956 39.8204 34.1929 39.9941 37.5363C40.017 37.8426 39.9732 38.15 39.8654 38.4405C39.7576 38.731 39.5879 38.9988 39.3662 39.228C39.1445 39.4573 38.8754 39.6434 38.5745 39.7756C38.2737 39.9077 37.9472 39.9832 37.6143 39.9975C37.2814 40.0118 36.9487 39.9647 36.6358 39.859C36.3229 39.7533 36.0361 39.5911 35.7922 39.3819C35.5483 39.1727 35.3522 38.9207 35.2154 38.6407C35.0786 38.3607 35.004 38.0584 34.9958 37.7515C34.8139 34.1998 33.1542 30.8491 30.3614 28.3949C27.5686 25.9407 23.8571 24.5715 19.9974 24.5715C16.1377 24.5715 12.4262 25.9407 9.6334 28.3949C6.8406 30.8491 5.18099 34.1998 4.99909 37.7515C4.95414 38.3526 4.65546 38.9137 4.16699 39.3145C3.67853 39.7153 3.03912 39.924 2.38569 39.8958C1.73226 39.8677 1.11677 39.605 0.671006 39.164C0.225244 38.723 -0.0153456 38.1387 0.00075942 37.5363C0.173802 34.1931 1.33053 30.9563 3.34711 28.1722C5.3637 25.3881 8.16421 23.1617 11.4489 21.7311C9.34348 20.1134 7.83014 17.9375 7.11471 15.4994C6.39929 13.0613 6.51651 10.4793 7.45043 8.10477C8.38434 5.7302 10.0896 3.67829 12.3343 2.22814C14.579 0.777988 17.2541 0 19.9958 0C22.7374 0 25.4125 0.777988 27.6572 2.22814C29.9019 3.67829 31.6072 5.7302 32.5411 8.10477C33.475 10.4793 33.5922 13.0613 32.8768 15.4994C32.1614 17.9375 30.648 20.1134 28.5426 21.7311ZM28.3391 12.2856C28.3391 10.2475 27.4602 8.293 25.8959 6.85191C24.3315 5.41082 22.2098 4.60122 19.9974 4.60122C17.7851 4.60122 15.6633 5.41082 14.099 6.85191C12.5346 8.293 11.6557 10.2475 11.6557 12.2856C11.6557 14.3236 12.5346 16.2781 14.099 17.7192C15.6633 19.1603 17.7851 19.9699 19.9974 19.9699C22.2098 19.9699 24.3315 19.1603 25.8959 17.7192C27.4602 16.2781 28.3391 14.3236 28.3391 12.2856Z" fill="#9D9D9D"/>
</svg>
