<svg width="42" height="42" viewBox="0 0 42 42" fill="current" xmlns="http://www.w3.org/2000/svg">
<path id="Vector" d="M15.9475 29.8906L34.31 37.1886C34.6185 37.3118 34.9479 37.3569 35.2741 37.3204C35.6003 37.284 35.915 37.1671 36.1953 36.9781C36.4756 36.7892 36.7143 36.533 36.894 36.2284C37.0738 35.9238 37.19 35.5784 37.2341 35.2174L40.9802 3.75396C41.2082 1.83833 39.4222 0.409381 37.8461 1.24275L2.24711 20.1235C0.487065 21.0569 0.619068 23.8792 2.45912 24.6059L7.33926 26.5349L9.99934 27.5727M22.9997 32.6907L19.0196 40.0821C17.7196 41.8777 15.1015 40.8621 15.1015 38.5642V32.6462C15.1015 31.5294 15.48 30.4536 16.1615 29.6328L23.9037 20.2991" stroke="#9D9D9D" stroke-width="2" stroke-linecap="round" stroke-linejoin="round" fill="current"/>
</svg>
