<svg width="74" height="34" viewBox="0 0 74 34" fill="none" xmlns="http://www.w3.org/2000/svg">
<rect width="74" height="33.2245" rx="16.6122" fill="white"/>
<path d="M51 15.9996C51.0008 16.3392 50.9138 16.6732 50.7473 16.9691C50.5808 17.265 50.3406 17.5128 50.05 17.6884L32.04 28.7059C31.7364 28.8918 31.3886 28.9933 31.0326 28.9999C30.6766 29.0065 30.3253 28.918 30.015 28.7434C29.7076 28.5715 29.4516 28.3209 29.2732 28.0173C29.0948 27.7137 29.0005 27.368 29 27.0159V4.9834C29.0005 4.63125 29.0948 4.2856 29.2732 3.98199C29.4516 3.67837 29.7076 3.42775 30.015 3.2559C30.3253 3.08133 30.6766 2.99277 31.0326 2.99937C31.3886 3.00596 31.7364 3.10746 32.04 3.2934L50.05 14.3109C50.3406 14.4865 50.5808 14.7343 50.7473 15.0302C50.9138 15.3261 51.0008 15.6601 51 15.9996Z" fill="#FD8680"/>
</svg>
