<svg width="195" height="185" viewBox="0 0 195 185" fill="none" xmlns="http://www.w3.org/2000/svg">
<g filter="url(#filter0_d_601_2690)">
<rect width="186" height="176" rx="30" fill="white"/>
<rect x="0.5" y="0.5" width="185" height="175" rx="29.5" stroke="#9D9D9D"/>
</g>
<path d="M41.9483 68.144C41.0309 68.144 40.3163 67.824 39.8043 67.184C39.3136 66.544 39.0683 65.6373 39.0683 64.464C39.0683 63.5467 39.1003 62.4053 39.1643 61.04C39.2283 59.6533 39.3136 58.1387 39.4203 56.496C39.5269 54.832 39.6443 53.1147 39.7723 51.344C39.9003 49.552 40.0283 47.792 40.1562 46.064C40.3056 44.3147 40.4336 42.6613 40.5403 41.104C40.6469 39.5253 40.7323 38.128 40.7963 36.912C40.8603 35.696 40.8923 34.736 40.8923 34.032C40.8923 33.2427 40.8389 32.6987 40.7323 32.4C40.6256 32.08 40.3269 31.888 39.8363 31.824C39.3669 31.7813 38.8016 31.888 38.1403 32.144C37.5003 32.3787 36.8709 32.624 36.2523 32.88C35.6549 33.136 35.1749 33.2427 34.8123 33.2C34.4709 33.0933 34.2256 32.9333 34.0763 32.72C33.9483 32.5067 33.8843 32.2613 33.8843 31.984C33.8843 31.4507 34.2149 30.8533 34.8763 30.192C35.5589 29.5307 36.4016 28.912 37.4043 28.336C38.4069 27.7387 39.4096 27.248 40.4123 26.864C41.4363 26.4587 42.2896 26.256 42.9723 26.256C43.7829 26.256 44.4336 26.48 44.9243 26.928C45.4149 27.3547 45.7883 27.952 46.0443 28.72C46.3216 29.4667 46.5029 30.32 46.5883 31.28C46.6949 32.2187 46.7483 33.2 46.7483 34.224C46.7483 35.056 46.7269 36.0693 46.6843 37.264C46.6416 38.4587 46.5776 39.76 46.4923 41.168C46.4283 42.5547 46.3429 44.016 46.2363 45.552C46.1296 47.088 46.0123 48.656 45.8843 50.256C45.7776 51.8347 45.6709 53.392 45.5643 54.928C45.4789 56.4427 45.3829 57.904 45.2763 59.312C45.1696 60.6987 45.0843 61.968 45.0203 63.12C44.8069 64.8267 44.4656 66.0853 43.9963 66.896C43.5269 67.728 42.8443 68.144 41.9483 68.144ZM63.7578 67.472C62.1364 67.472 60.6644 67.12 59.3418 66.416C58.0404 65.7333 56.8884 64.7733 55.8858 63.536C54.9044 62.2987 54.0724 60.8373 53.3898 59.152C52.7284 57.4667 52.2271 55.632 51.8858 53.648C51.5444 51.664 51.3738 49.5733 51.3738 47.376C51.3738 44.3467 51.7044 41.5307 52.3658 38.928C53.0271 36.3253 53.9978 34.0533 55.2778 32.112C56.5791 30.1707 58.1684 28.656 60.0458 27.568C61.9231 26.48 64.0778 25.936 66.5098 25.936C68.6004 25.936 70.4351 26.384 72.0138 27.28C73.5924 28.176 74.9151 29.4453 75.9818 31.088C77.0698 32.7093 77.8804 34.64 78.4138 36.88C78.9471 39.0987 79.2138 41.552 79.2138 44.24C79.2138 46.544 79.0218 48.8267 78.6378 51.088C78.2538 53.328 77.6564 55.44 76.8458 57.424C76.0564 59.3867 75.0431 61.1253 73.8058 62.64C72.5898 64.1333 71.1498 65.3067 69.4858 66.16C67.8218 67.0347 65.9124 67.472 63.7578 67.472ZM64.0458 61.616C65.3898 61.616 66.6058 61.296 67.6938 60.656C68.7818 59.9947 69.7311 59.1093 70.5418 58C71.3738 56.8907 72.0671 55.6213 72.6218 54.192C73.1764 52.7413 73.5924 51.2053 73.8698 49.584C74.1684 47.9627 74.3178 46.352 74.3178 44.752C74.3178 43.088 74.1684 41.456 73.8698 39.856C73.5924 38.2347 73.1444 36.784 72.5258 35.504C71.9284 34.2027 71.1391 33.168 70.1578 32.4C69.1764 31.632 67.9924 31.248 66.6058 31.248C64.8991 31.248 63.4058 31.6853 62.1258 32.56C60.8671 33.4347 59.8111 34.6187 58.9578 36.112C58.1258 37.584 57.4964 39.2693 57.0698 41.168C56.6431 43.0453 56.4298 44.9973 56.4298 47.024C56.4298 48.4107 56.5364 49.808 56.7498 51.216C56.9844 52.6027 57.3151 53.9253 57.7418 55.184C58.1898 56.4213 58.7231 57.52 59.3418 58.48C59.9604 59.44 60.6644 60.208 61.4538 60.784C62.2431 61.3387 63.1071 61.616 64.0458 61.616Z" fill="black"/>
<line x1="93" y1="65.5" x2="142" y2="65.5" stroke="#9D9D9D"/>
<line x1="43" y1="93.5" x2="142.02" y2="93.5" stroke="#9D9D9D"/>
<line x1="43" y1="138.5" x2="118" y2="138.5" stroke="#9D9D9D"/>
<line x1="43" y1="117.5" x2="142.02" y2="117.5" stroke="#9D9D9D"/>
<defs>
<filter id="filter0_d_601_2690" x="0" y="0" width="195" height="185" filterUnits="userSpaceOnUse" color-interpolation-filters="sRGB">
<feFlood flood-opacity="0" result="BackgroundImageFix"/>
<feColorMatrix in="SourceAlpha" type="matrix" values="0 0 0 0 0 0 0 0 0 0 0 0 0 0 0 0 0 0 127 0" result="hardAlpha"/>
<feOffset dx="5" dy="5"/>
<feGaussianBlur stdDeviation="2"/>
<feComposite in2="hardAlpha" operator="out"/>
<feColorMatrix type="matrix" values="0 0 0 0 1 0 0 0 0 0.0541667 0 0 0 0 0.0541667 0 0 0 0.74 0"/>
<feBlend mode="normal" in2="BackgroundImageFix" result="effect1_dropShadow_601_2690"/>
<feBlend mode="normal" in="SourceGraphic" in2="effect1_dropShadow_601_2690" result="shape"/>
</filter>
</defs>
</svg>
