<svg width="195" height="185" viewBox="0 0 195 185" fill="none" xmlns="http://www.w3.org/2000/svg">
<g filter="url(#filter0_d_601_2683)">
<rect width="186" height="176" rx="30" fill="white"/>
<rect x="0.5" y="0.5" width="185" height="175" rx="29.5" stroke="#9D9D9D"/>
</g>
<path d="M38.9453 67.472C37.3239 67.472 35.8519 67.12 34.5293 66.416C33.2279 65.7333 32.0759 64.7733 31.0733 63.536C30.0919 62.2987 29.2599 60.8373 28.5773 59.152C27.9159 57.4667 27.4146 55.632 27.0733 53.648C26.7319 51.664 26.5613 49.5733 26.5613 47.376C26.5613 44.3467 26.8919 41.5307 27.5533 38.928C28.2146 36.3253 29.1853 34.0533 30.4653 32.112C31.7666 30.1707 33.3559 28.656 35.2333 27.568C37.1106 26.48 39.2653 25.936 41.6973 25.936C43.7879 25.936 45.6226 26.384 47.2013 27.28C48.7799 28.176 50.1026 29.4453 51.1693 31.088C52.2573 32.7093 53.0679 34.64 53.6013 36.88C54.1346 39.0987 54.4013 41.552 54.4013 44.24C54.4013 46.544 54.2093 48.8267 53.8253 51.088C53.4413 53.328 52.8439 55.44 52.0333 57.424C51.2439 59.3867 50.2306 61.1253 48.9933 62.64C47.7773 64.1333 46.3373 65.3067 44.6733 66.16C43.0093 67.0347 41.0999 67.472 38.9453 67.472ZM39.2333 61.616C40.5773 61.616 41.7933 61.296 42.8813 60.656C43.9693 59.9947 44.9186 59.1093 45.7293 58C46.5613 56.8907 47.2546 55.6213 47.8093 54.192C48.3639 52.7413 48.7799 51.2053 49.0573 49.584C49.3559 47.9627 49.5053 46.352 49.5053 44.752C49.5053 43.088 49.3559 41.456 49.0573 39.856C48.7799 38.2347 48.3319 36.784 47.7133 35.504C47.1159 34.2027 46.3266 33.168 45.3453 32.4C44.3639 31.632 43.1799 31.248 41.7933 31.248C40.0866 31.248 38.5933 31.6853 37.3133 32.56C36.0546 33.4347 34.9986 34.6187 34.1453 36.112C33.3133 37.584 32.6839 39.2693 32.2573 41.168C31.8306 43.0453 31.6173 44.9973 31.6173 47.024C31.6173 48.4107 31.7239 49.808 31.9373 51.216C32.1719 52.6027 32.5026 53.9253 32.9293 55.184C33.3773 56.4213 33.9106 57.52 34.5293 58.48C35.1479 59.44 35.8519 60.208 36.6413 60.784C37.4306 61.3387 38.2946 61.616 39.2333 61.616ZM66.3753 67.376C65.1166 67.2907 63.9859 67.12 62.9833 66.864C61.9806 66.608 61.1913 66.2027 60.6153 65.648C60.0393 65.0933 59.7513 64.336 59.7513 63.376C59.7513 62.4587 59.9006 61.616 60.1993 60.848C60.5193 60.08 61.1486 59.248 62.0873 58.352C62.8553 57.4987 63.9539 56.432 65.3833 55.152C66.8126 53.8507 68.3806 52.4427 70.0873 50.928C71.7939 49.392 73.4259 47.856 74.9833 46.32C76.0286 45.296 76.9566 44.2613 77.7673 43.216C78.5779 42.1707 79.2179 41.1467 79.6873 40.144C80.1779 39.12 80.4233 38.1707 80.4233 37.296C80.4233 34.992 79.8153 33.392 78.5993 32.496C77.4046 31.6 75.7406 31.152 73.6073 31.152C71.7299 31.152 70.1406 31.44 68.8393 32.016C67.5593 32.592 66.5033 33.2747 65.6713 34.064C65.0953 34.6187 64.5619 35.2373 64.0713 35.92C63.6019 36.6027 63.1539 37.2 62.7273 37.712C62.3219 38.224 61.9059 38.48 61.4793 38.48C60.9886 38.48 60.5619 38.3307 60.1993 38.032C59.8366 37.7333 59.6553 37.2853 59.6553 36.688C59.6553 35.728 59.9646 34.6613 60.5833 33.488C61.2233 32.3147 62.1406 31.1947 63.3353 30.128C64.5299 29.0613 65.9913 28.1867 67.7193 27.504C69.4686 26.8213 71.4633 26.48 73.7033 26.48C75.5379 26.48 77.2019 26.672 78.6953 27.056C80.1886 27.4187 81.4793 28.0053 82.5673 28.816C83.6553 29.6053 84.4873 30.6293 85.0633 31.888C85.6606 33.1467 85.9593 34.672 85.9593 36.464C85.9593 37.8293 85.7033 39.1413 85.1913 40.4C84.7006 41.6373 83.9966 42.8533 83.0793 44.048C82.1833 45.2427 81.1166 46.4693 79.8793 47.728C79.1113 48.5173 78.2259 49.392 77.2233 50.352C76.2419 51.312 75.2179 52.2933 74.1513 53.296C73.1059 54.2987 72.1139 55.2373 71.1753 56.112C70.2579 56.9653 69.4686 57.7013 68.8073 58.32C68.2313 58.832 67.8046 59.3227 67.5273 59.792C67.2499 60.24 67.1113 60.7093 67.1113 61.2C67.1113 61.52 67.3353 61.7547 67.7833 61.904C68.2313 62.032 68.7753 62.1173 69.4153 62.16C70.0766 62.2027 70.7059 62.224 71.3033 62.224C72.3059 62.224 73.5646 62.1387 75.0793 61.968C76.5939 61.776 78.0979 61.5947 79.5913 61.424C81.0846 61.232 82.2899 61.136 83.2073 61.136C83.8899 61.136 84.4446 61.2853 84.8713 61.584C85.3193 61.8613 85.5433 62.2773 85.5433 62.832C85.5433 63.5573 85.3193 64.176 84.8713 64.688C84.4233 65.1787 83.7406 65.5947 82.8233 65.936C81.9273 66.256 80.7753 66.512 79.3673 66.704C77.9593 66.9173 76.2846 67.0987 74.3433 67.248C73.1913 67.312 71.9006 67.3653 70.4713 67.408C69.0633 67.4507 67.6979 67.44 66.3753 67.376Z" fill="black"/>
<line x1="93" y1="65.5" x2="142" y2="65.5" stroke="#9D9D9D"/>
<line x1="43" y1="93.5" x2="142.02" y2="93.5" stroke="#9D9D9D"/>
<line x1="43" y1="138.5" x2="118" y2="138.5" stroke="#9D9D9D"/>
<line x1="43" y1="117.5" x2="142.02" y2="117.5" stroke="#9D9D9D"/>
<defs>
<filter id="filter0_d_601_2683" x="0" y="0" width="195" height="185" filterUnits="userSpaceOnUse" color-interpolation-filters="sRGB">
<feFlood flood-opacity="0" result="BackgroundImageFix"/>
<feColorMatrix in="SourceAlpha" type="matrix" values="0 0 0 0 0 0 0 0 0 0 0 0 0 0 0 0 0 0 127 0" result="hardAlpha"/>
<feOffset dx="5" dy="5"/>
<feGaussianBlur stdDeviation="2"/>
<feComposite in2="hardAlpha" operator="out"/>
<feColorMatrix type="matrix" values="0 0 0 0 0.2825 0 0 0 0 0.862567 0 0 0 0 0.941667 0 0 0 0.74 0"/>
<feBlend mode="normal" in2="BackgroundImageFix" result="effect1_dropShadow_601_2683"/>
<feBlend mode="normal" in="SourceGraphic" in2="effect1_dropShadow_601_2683" result="shape"/>
</filter>
</defs>
</svg>
