<svg width="195" height="185" viewBox="0 0 195 185" fill="none" xmlns="http://www.w3.org/2000/svg">
<g filter="url(#filter0_d_601_2686)">
<rect width="186" height="176" rx="30" fill="white"/>
<rect x="0.5" y="0.5" width="185" height="175" rx="29.5" stroke="#9D9D9D"/>
</g>
<path d="M39.9765 67.472C38.3552 67.472 36.8832 67.12 35.5605 66.416C34.2592 65.7333 33.1072 64.7733 32.1045 63.536C31.1232 62.2987 30.2912 60.8373 29.6085 59.152C28.9472 57.4667 28.4458 55.632 28.1045 53.648C27.7632 51.664 27.5925 49.5733 27.5925 47.376C27.5925 44.3467 27.9232 41.5307 28.5845 38.928C29.2458 36.3253 30.2165 34.0533 31.4965 32.112C32.7978 30.1707 34.3872 28.656 36.2645 27.568C38.1418 26.48 40.2965 25.936 42.7285 25.936C44.8192 25.936 46.6538 26.384 48.2325 27.28C49.8112 28.176 51.1338 29.4453 52.2005 31.088C53.2885 32.7093 54.0992 34.64 54.6325 36.88C55.1658 39.0987 55.4325 41.552 55.4325 44.24C55.4325 46.544 55.2405 48.8267 54.8565 51.088C54.4725 53.328 53.8752 55.44 53.0645 57.424C52.2752 59.3867 51.2618 61.1253 50.0245 62.64C48.8085 64.1333 47.3685 65.3067 45.7045 66.16C44.0405 67.0347 42.1312 67.472 39.9765 67.472ZM40.2645 61.616C41.6085 61.616 42.8245 61.296 43.9125 60.656C45.0005 59.9947 45.9498 59.1093 46.7605 58C47.5925 56.8907 48.2858 55.6213 48.8405 54.192C49.3952 52.7413 49.8112 51.2053 50.0885 49.584C50.3872 47.9627 50.5365 46.352 50.5365 44.752C50.5365 43.088 50.3872 41.456 50.0885 39.856C49.8112 38.2347 49.3632 36.784 48.7445 35.504C48.1472 34.2027 47.3578 33.168 46.3765 32.4C45.3952 31.632 44.2112 31.248 42.8245 31.248C41.1178 31.248 39.6245 31.6853 38.3445 32.56C37.0858 33.4347 36.0298 34.6187 35.1765 36.112C34.3445 37.584 33.7152 39.2693 33.2885 41.168C32.8618 43.0453 32.6485 44.9973 32.6485 47.024C32.6485 48.4107 32.7552 49.808 32.9685 51.216C33.2032 52.6027 33.5338 53.9253 33.9605 55.184C34.4085 56.4213 34.9418 57.52 35.5605 58.48C36.1792 59.44 36.8832 60.208 37.6725 60.784C38.4618 61.3387 39.3258 61.616 40.2645 61.616ZM65.7105 66.288C64.7505 66.288 63.8865 66.256 63.1185 66.192C62.3718 66.128 61.7105 66.0213 61.1345 65.872C60.4518 65.68 59.9292 65.4133 59.5665 65.072C59.2252 64.7093 59.0545 64.2293 59.0545 63.632C59.0545 62.8853 59.3212 62.3307 59.8545 61.968C60.4092 61.6053 61.2198 61.424 62.2865 61.424C62.7985 61.424 63.4598 61.4347 64.2705 61.456C65.0812 61.4773 65.9558 61.488 66.8945 61.488C68.7718 61.488 70.5532 61.3493 72.2385 61.072C73.9238 60.7733 75.4065 60.2933 76.6865 59.632C77.9878 58.9707 79.0012 58.096 79.7265 57.008C80.4518 55.92 80.8145 54.576 80.8145 52.976C80.8145 50.8427 80.1212 49.328 78.7345 48.432C77.3692 47.536 75.4705 47.088 73.0385 47.088C71.3318 47.088 69.8812 47.2267 68.6865 47.504C67.4918 47.76 66.1585 47.888 64.6865 47.888C62.6812 47.888 61.2625 47.4187 60.4305 46.48C59.6198 45.52 59.2145 44.1227 59.2145 42.288C59.2145 41.2 59.3105 40.0587 59.5025 38.864C59.7158 37.6693 59.9825 36.5067 60.3025 35.376C60.6225 34.224 60.9425 33.2107 61.2625 32.336C61.7105 31.0773 62.2865 30.096 62.9905 29.392C63.7158 28.6667 64.6332 28.1547 65.7425 27.856C66.8518 27.5573 68.1958 27.408 69.7745 27.408C71.0545 27.408 72.1212 27.4187 72.9745 27.44C73.8492 27.4613 74.7878 27.4827 75.7905 27.504C76.8145 27.5253 78.1372 27.536 79.7585 27.536C80.7398 27.536 81.6145 27.5893 82.3825 27.696C83.1718 27.8027 83.7905 28.016 84.2385 28.336C84.6865 28.6347 84.9105 29.0827 84.9105 29.68C84.9105 30.256 84.6865 30.6827 84.2385 30.96C83.8118 31.2373 83.2252 31.4293 82.4785 31.536C81.7318 31.6213 80.9318 31.664 80.0785 31.664C78.6918 31.664 77.1878 31.632 75.5665 31.568C73.9665 31.504 72.3878 31.472 70.8305 31.472C69.3798 31.472 68.2492 31.664 67.4385 32.048C66.6492 32.4107 66.0732 33.1787 65.7105 34.352C65.5398 34.9493 65.3478 35.6533 65.1345 36.464C64.9425 37.2533 64.7718 38.0747 64.6225 38.928C64.4732 39.7813 64.3985 40.6027 64.3985 41.392C64.3985 42.1387 64.4838 42.6827 64.6545 43.024C64.8465 43.3653 65.1345 43.5893 65.5185 43.696C65.9238 43.7813 66.4252 43.824 67.0225 43.824C67.6412 43.824 68.3985 43.7707 69.2945 43.664C70.1905 43.536 71.1292 43.4187 72.1105 43.312C73.1132 43.2053 74.0305 43.152 74.8625 43.152C77.2945 43.152 79.3745 43.5147 81.1025 44.24C82.8305 44.944 84.1532 46.032 85.0705 47.504C86.0092 48.9547 86.4785 50.8107 86.4785 53.072C86.4785 55.5253 85.9452 57.5947 84.8785 59.28C83.8332 60.9653 82.3612 62.3307 80.4625 63.376C78.5852 64.4 76.3878 65.1467 73.8705 65.616C71.3745 66.064 68.6545 66.288 65.7105 66.288Z" fill="black"/>
<line x1="93" y1="65.5" x2="142" y2="65.5" stroke="#9D9D9D"/>
<line x1="43" y1="93.5" x2="142.02" y2="93.5" stroke="#9D9D9D"/>
<line x1="43" y1="138.5" x2="118" y2="138.5" stroke="#9D9D9D"/>
<line x1="43" y1="117.5" x2="142.02" y2="117.5" stroke="#9D9D9D"/>
<defs>
<filter id="filter0_d_601_2686" x="0" y="0" width="195" height="185" filterUnits="userSpaceOnUse" color-interpolation-filters="sRGB">
<feFlood flood-opacity="0" result="BackgroundImageFix"/>
<feColorMatrix in="SourceAlpha" type="matrix" values="0 0 0 0 0 0 0 0 0 0 0 0 0 0 0 0 0 0 127 0" result="hardAlpha"/>
<feOffset dx="5" dy="5"/>
<feGaussianBlur stdDeviation="2"/>
<feComposite in2="hardAlpha" operator="out"/>
<feColorMatrix type="matrix" values="0 0 0 0 0.972917 0 0 0 0 0.729647 0 0 0 0 0.257418 0 0 0 0.74 0"/>
<feBlend mode="normal" in2="BackgroundImageFix" result="effect1_dropShadow_601_2686"/>
<feBlend mode="normal" in="SourceGraphic" in2="effect1_dropShadow_601_2686" result="shape"/>
</filter>
</defs>
</svg>
