<svg width="195" height="185" viewBox="0 0 195 185" fill="none" xmlns="http://www.w3.org/2000/svg">
<g filter="url(#filter0_d_601_2692)">
<rect width="186" height="176" rx="30" fill="white"/>
<rect x="0.5" y="0.5" width="185" height="175" rx="29.5" stroke="#9D9D9D"/>
</g>
<path d="M48.8545 68.144C47.9372 68.144 47.2225 67.824 46.7105 67.184C46.2198 66.544 45.9745 65.6373 45.9745 64.464C45.9745 63.5467 46.0065 62.4053 46.0705 61.04C46.1345 59.6533 46.2198 58.1387 46.3265 56.496C46.4332 54.832 46.5505 53.1147 46.6785 51.344C46.8065 49.552 46.9345 47.792 47.0625 46.064C47.2118 44.3147 47.3398 42.6613 47.4465 41.104C47.5532 39.5253 47.6385 38.128 47.7025 36.912C47.7665 35.696 47.7985 34.736 47.7985 34.032C47.7985 33.2427 47.7452 32.6987 47.6385 32.4C47.5318 32.08 47.2332 31.888 46.7425 31.824C46.2732 31.7813 45.7078 31.888 45.0465 32.144C44.4065 32.3787 43.7772 32.624 43.1585 32.88C42.5612 33.136 42.0812 33.2427 41.7185 33.2C41.3772 33.0933 41.1318 32.9333 40.9825 32.72C40.8545 32.5067 40.7905 32.2613 40.7905 31.984C40.7905 31.4507 41.1212 30.8533 41.7825 30.192C42.4652 29.5307 43.3078 28.912 44.3105 28.336C45.3132 27.7387 46.3158 27.248 47.3185 26.864C48.3425 26.4587 49.1958 26.256 49.8785 26.256C50.6892 26.256 51.3398 26.48 51.8305 26.928C52.3212 27.3547 52.6945 27.952 52.9505 28.72C53.2278 29.4667 53.4092 30.32 53.4945 31.28C53.6012 32.2187 53.6545 33.2 53.6545 34.224C53.6545 35.056 53.6332 36.0693 53.5905 37.264C53.5478 38.4587 53.4838 39.76 53.3985 41.168C53.3345 42.5547 53.2492 44.016 53.1425 45.552C53.0358 47.088 52.9185 48.656 52.7905 50.256C52.6838 51.8347 52.5772 53.392 52.4705 54.928C52.3852 56.4427 52.2892 57.904 52.1825 59.312C52.0758 60.6987 51.9905 61.968 51.9265 63.12C51.7132 64.8267 51.3718 66.0853 50.9025 66.896C50.4332 67.728 49.7505 68.144 48.8545 68.144ZM66.792 68.144C65.8747 68.144 65.16 67.824 64.648 67.184C64.1573 66.544 63.912 65.6373 63.912 64.464C63.912 63.5467 63.944 62.4053 64.008 61.04C64.072 59.6533 64.1573 58.1387 64.264 56.496C64.3707 54.832 64.488 53.1147 64.616 51.344C64.744 49.552 64.872 47.792 65 46.064C65.1493 44.3147 65.2773 42.6613 65.384 41.104C65.4907 39.5253 65.576 38.128 65.64 36.912C65.704 35.696 65.736 34.736 65.736 34.032C65.736 33.2427 65.6827 32.6987 65.576 32.4C65.4693 32.08 65.1707 31.888 64.68 31.824C64.2107 31.7813 63.6453 31.888 62.984 32.144C62.344 32.3787 61.7147 32.624 61.096 32.88C60.4987 33.136 60.0187 33.2427 59.656 33.2C59.3147 33.0933 59.0693 32.9333 58.92 32.72C58.792 32.5067 58.728 32.2613 58.728 31.984C58.728 31.4507 59.0587 30.8533 59.72 30.192C60.4027 29.5307 61.2453 28.912 62.248 28.336C63.2507 27.7387 64.2533 27.248 65.256 26.864C66.28 26.4587 67.1333 26.256 67.816 26.256C68.6267 26.256 69.2773 26.48 69.768 26.928C70.2587 27.3547 70.632 27.952 70.888 28.72C71.1653 29.4667 71.3467 30.32 71.432 31.28C71.5387 32.2187 71.592 33.2 71.592 34.224C71.592 35.056 71.5707 36.0693 71.528 37.264C71.4853 38.4587 71.4213 39.76 71.336 41.168C71.272 42.5547 71.1867 44.016 71.08 45.552C70.9733 47.088 70.856 48.656 70.728 50.256C70.6213 51.8347 70.5147 53.392 70.408 54.928C70.3227 56.4427 70.2267 57.904 70.12 59.312C70.0133 60.6987 69.928 61.968 69.864 63.12C69.6507 64.8267 69.3093 66.0853 68.84 66.896C68.3707 67.728 67.688 68.144 66.792 68.144Z" fill="black"/>
<line x1="93" y1="65.5" x2="142" y2="65.5" stroke="#9D9D9D"/>
<line x1="43" y1="93.5" x2="142.02" y2="93.5" stroke="#9D9D9D"/>
<line x1="43" y1="138.5" x2="118" y2="138.5" stroke="#9D9D9D"/>
<line x1="43" y1="117.5" x2="142.02" y2="117.5" stroke="#9D9D9D"/>
<defs>
<filter id="filter0_d_601_2692" x="0" y="0" width="195" height="185" filterUnits="userSpaceOnUse" color-interpolation-filters="sRGB">
<feFlood flood-opacity="0" result="BackgroundImageFix"/>
<feColorMatrix in="SourceAlpha" type="matrix" values="0 0 0 0 0 0 0 0 0 0 0 0 0 0 0 0 0 0 127 0" result="hardAlpha"/>
<feOffset dx="5" dy="5"/>
<feGaussianBlur stdDeviation="2"/>
<feComposite in2="hardAlpha" operator="out"/>
<feColorMatrix type="matrix" values="0 0 0 0 1 0 0 0 0 0.0541667 0 0 0 0 0.0541667 0 0 0 0.74 0"/>
<feBlend mode="normal" in2="BackgroundImageFix" result="effect1_dropShadow_601_2692"/>
<feBlend mode="normal" in="SourceGraphic" in2="effect1_dropShadow_601_2692" result="shape"/>
</filter>
</defs>
</svg>
