<svg width="195" height="185" viewBox="0 0 195 185" fill="none" xmlns="http://www.w3.org/2000/svg">
<g filter="url(#filter0_d_601_2689)">
<rect width="186" height="176" rx="30" fill="white"/>
<rect x="0.5" y="0.5" width="185" height="175" rx="29.5" stroke="#9D9D9D"/>
</g>
<path d="M36.7578 67.472C35.1364 67.472 33.6644 67.12 32.3418 66.416C31.0404 65.7333 29.8884 64.7733 28.8858 63.536C27.9044 62.2987 27.0724 60.8373 26.3898 59.152C25.7284 57.4667 25.2271 55.632 24.8858 53.648C24.5444 51.664 24.3738 49.5733 24.3738 47.376C24.3738 44.3467 24.7044 41.5307 25.3658 38.928C26.0271 36.3253 26.9978 34.0533 28.2778 32.112C29.5791 30.1707 31.1684 28.656 33.0458 27.568C34.9231 26.48 37.0778 25.936 39.5098 25.936C41.6004 25.936 43.4351 26.384 45.0138 27.28C46.5924 28.176 47.9151 29.4453 48.9818 31.088C50.0698 32.7093 50.8804 34.64 51.4138 36.88C51.9471 39.0987 52.2138 41.552 52.2138 44.24C52.2138 46.544 52.0218 48.8267 51.6378 51.088C51.2538 53.328 50.6564 55.44 49.8458 57.424C49.0564 59.3867 48.0431 61.1253 46.8058 62.64C45.5898 64.1333 44.1498 65.3067 42.4858 66.16C40.8218 67.0347 38.9124 67.472 36.7578 67.472ZM37.0458 61.616C38.3898 61.616 39.6058 61.296 40.6938 60.656C41.7818 59.9947 42.7311 59.1093 43.5418 58C44.3738 56.8907 45.0671 55.6213 45.6218 54.192C46.1764 52.7413 46.5924 51.2053 46.8698 49.584C47.1684 47.9627 47.3178 46.352 47.3178 44.752C47.3178 43.088 47.1684 41.456 46.8698 39.856C46.5924 38.2347 46.1444 36.784 45.5258 35.504C44.9284 34.2027 44.1391 33.168 43.1578 32.4C42.1764 31.632 40.9924 31.248 39.6058 31.248C37.8991 31.248 36.4058 31.6853 35.1258 32.56C33.8671 33.4347 32.8111 34.6187 31.9578 36.112C31.1258 37.584 30.4964 39.2693 30.0698 41.168C29.6431 43.0453 29.4298 44.9973 29.4298 47.024C29.4298 48.4107 29.5364 49.808 29.7498 51.216C29.9844 52.6027 30.3151 53.9253 30.7418 55.184C31.1898 56.4213 31.7231 57.52 32.3418 58.48C32.9604 59.44 33.6644 60.208 34.4538 60.784C35.2431 61.3387 36.1071 61.616 37.0458 61.616ZM73.1478 66.8C70.8011 66.8 68.6251 66.5867 66.6198 66.16C64.6144 65.7333 62.8651 65.072 61.3718 64.176C59.8784 63.28 58.7158 62.128 57.8838 60.72C57.0518 59.312 56.6358 57.6267 56.6358 55.664C56.6358 54.32 56.9024 53.04 57.4358 51.824C57.9904 50.608 58.6838 49.5413 59.5158 48.624C60.3691 47.7067 61.2331 47.0773 62.1078 46.736C62.7904 46.4587 63.2704 46.224 63.5478 46.032C63.8464 45.8187 63.9958 45.6267 63.9958 45.456C63.9958 45.2853 63.8571 45.104 63.5798 44.912C63.3238 44.72 63.0038 44.528 62.6198 44.336C61.2118 43.6107 60.1024 42.64 59.2918 41.424C58.5024 40.208 58.1078 38.9173 58.1078 37.552C58.1078 35.7813 58.5558 34.224 59.4518 32.88C60.3478 31.536 61.5531 30.416 63.0677 29.52C64.5824 28.624 66.2891 27.952 68.1878 27.504C70.1078 27.0347 72.0811 26.8 74.1078 26.8C76.0704 26.8 77.9584 27.0347 79.7718 27.504C81.6064 27.952 83.2491 28.6347 84.6998 29.552C86.1504 30.4693 87.3024 31.5893 88.1558 32.912C89.0091 34.2347 89.4358 35.76 89.4358 37.488C89.4358 38.5973 89.1691 39.6533 88.6357 40.656C88.1238 41.6587 87.4624 42.544 86.6518 43.312C85.8411 44.0587 84.9984 44.6347 84.1238 45.04C83.8678 45.168 83.6544 45.296 83.4838 45.424C83.3344 45.5307 83.2598 45.68 83.2598 45.872C83.2598 46 83.3024 46.128 83.3878 46.256C83.4944 46.384 83.7611 46.544 84.1878 46.736C85.4678 47.248 86.5131 47.9413 87.3238 48.816C88.1558 49.6907 88.7638 50.7253 89.1478 51.92C89.5531 53.0933 89.7558 54.4267 89.7558 55.92C89.7558 57.904 89.3078 59.5893 88.4118 60.976C87.5371 62.3627 86.3211 63.4827 84.7638 64.336C83.2278 65.1893 81.4571 65.808 79.4518 66.192C77.4678 66.5973 75.3664 66.8 73.1478 66.8ZM73.5638 62.768C75.6331 62.768 77.4784 62.4907 79.0998 61.936C80.7211 61.3813 81.9904 60.56 82.9078 59.472C83.8464 58.384 84.3158 57.0507 84.3158 55.472C84.3158 53.4667 83.8784 51.8667 83.0038 50.672C82.1291 49.4773 80.9238 48.6347 79.3878 48.144C77.8518 47.632 76.1024 47.376 74.1398 47.376C71.8358 47.376 69.7878 47.6427 67.9958 48.176C66.2038 48.7093 64.7958 49.5733 63.7718 50.768C62.7478 51.9627 62.2358 53.552 62.2358 55.536C62.2358 57.1787 62.7478 58.5333 63.7718 59.6C64.7958 60.6667 66.1611 61.4667 67.8678 62C69.5958 62.512 71.4944 62.768 73.5638 62.768ZM73.5318 44.112C74.9611 44.112 76.3158 43.9413 77.5958 43.6C78.8758 43.2373 79.9958 42.7573 80.9558 42.16C81.9371 41.5413 82.7051 40.816 83.2598 39.984C83.8358 39.152 84.1238 38.2667 84.1238 37.328C84.1238 36.304 83.8678 35.376 83.3558 34.544C82.8438 33.6907 82.1291 32.9547 81.2118 32.336C80.2944 31.7173 79.2064 31.2373 77.9478 30.896C76.6891 30.5547 75.3024 30.384 73.7878 30.384C71.6544 30.384 69.7878 30.704 68.1878 31.344C66.6091 31.984 65.3718 32.8587 64.4758 33.968C63.6011 35.056 63.1638 36.2827 63.1638 37.648C63.1638 38.5227 63.4411 39.344 63.9958 40.112C64.5504 40.88 65.3184 41.5627 66.2998 42.16C67.2811 42.7573 68.3904 43.2373 69.6278 43.6C70.8651 43.9413 72.1664 44.112 73.5318 44.112Z" fill="black"/>
<line x1="93" y1="65.5" x2="142" y2="65.5" stroke="#9D9D9D"/>
<line x1="43" y1="93.5" x2="142.02" y2="93.5" stroke="#9D9D9D"/>
<line x1="43" y1="138.5" x2="118" y2="138.5" stroke="#9D9D9D"/>
<line x1="43" y1="117.5" x2="142.02" y2="117.5" stroke="#9D9D9D"/>
<defs>
<filter id="filter0_d_601_2689" x="0" y="0" width="195" height="185" filterUnits="userSpaceOnUse" color-interpolation-filters="sRGB">
<feFlood flood-opacity="0" result="BackgroundImageFix"/>
<feColorMatrix in="SourceAlpha" type="matrix" values="0 0 0 0 0 0 0 0 0 0 0 0 0 0 0 0 0 0 127 0" result="hardAlpha"/>
<feOffset dx="5" dy="5"/>
<feGaussianBlur stdDeviation="2"/>
<feComposite in2="hardAlpha" operator="out"/>
<feColorMatrix type="matrix" values="0 0 0 0 0.0268012 0 0 0 0 0.354147 0 0 0 0 0.989583 0 0 0 0.74 0"/>
<feBlend mode="normal" in2="BackgroundImageFix" result="effect1_dropShadow_601_2689"/>
<feBlend mode="normal" in="SourceGraphic" in2="effect1_dropShadow_601_2689" result="shape"/>
</filter>
</defs>
</svg>
