<svg width="195" height="185" viewBox="0 0 195 185" fill="none" xmlns="http://www.w3.org/2000/svg">
<g filter="url(#filter0_d_601_2685)">
<rect width="186" height="176" rx="30" fill="white"/>
<rect x="0.5" y="0.5" width="185" height="175" rx="29.5" stroke="#9D9D9D"/>
</g>
<path d="M38.789 67.472C37.1677 67.472 35.6957 67.12 34.373 66.416C33.0717 65.7333 31.9197 64.7733 30.917 63.536C29.9357 62.2987 29.1037 60.8373 28.421 59.152C27.7597 57.4667 27.2583 55.632 26.917 53.648C26.5757 51.664 26.405 49.5733 26.405 47.376C26.405 44.3467 26.7357 41.5307 27.397 38.928C28.0583 36.3253 29.029 34.0533 30.309 32.112C31.6103 30.1707 33.1997 28.656 35.077 27.568C36.9543 26.48 39.109 25.936 41.541 25.936C43.6317 25.936 45.4663 26.384 47.045 27.28C48.6237 28.176 49.9463 29.4453 51.013 31.088C52.101 32.7093 52.9117 34.64 53.445 36.88C53.9783 39.0987 54.245 41.552 54.245 44.24C54.245 46.544 54.053 48.8267 53.669 51.088C53.285 53.328 52.6877 55.44 51.877 57.424C51.0877 59.3867 50.0743 61.1253 48.837 62.64C47.621 64.1333 46.181 65.3067 44.517 66.16C42.853 67.0347 40.9437 67.472 38.789 67.472ZM39.077 61.616C40.421 61.616 41.637 61.296 42.725 60.656C43.813 59.9947 44.7623 59.1093 45.573 58C46.405 56.8907 47.0983 55.6213 47.653 54.192C48.2077 52.7413 48.6237 51.2053 48.901 49.584C49.1997 47.9627 49.349 46.352 49.349 44.752C49.349 43.088 49.1997 41.456 48.901 39.856C48.6237 38.2347 48.1757 36.784 47.557 35.504C46.9597 34.2027 46.1703 33.168 45.189 32.4C44.2077 31.632 43.0237 31.248 41.637 31.248C39.9303 31.248 38.437 31.6853 37.157 32.56C35.8983 33.4347 34.8423 34.6187 33.989 36.112C33.157 37.584 32.5277 39.2693 32.101 41.168C31.6743 43.0453 31.461 44.9973 31.461 47.024C31.461 48.4107 31.5677 49.808 31.781 51.216C32.0157 52.6027 32.3463 53.9253 32.773 55.184C33.221 56.4213 33.7543 57.52 34.373 58.48C34.9917 59.44 35.6957 60.208 36.485 60.784C37.2743 61.3387 38.1383 61.616 39.077 61.616ZM73.131 66.832C70.6777 66.832 68.555 66.48 66.763 65.776C64.9923 65.0507 63.531 63.9627 62.379 62.512C61.227 61.0613 60.3737 59.2587 59.819 57.104C59.2643 54.928 58.987 52.3787 58.987 49.456C58.987 46.7893 59.2857 44.208 59.883 41.712C60.4803 39.216 61.2377 36.9547 62.155 34.928C63.0723 32.9013 63.9897 31.248 64.907 29.968C65.611 29.0293 66.3257 28.3253 67.051 27.856C67.7763 27.3867 68.4803 27.152 69.163 27.152C69.7817 27.152 70.2617 27.3013 70.603 27.6C70.9443 27.8987 71.115 28.3573 71.115 28.976C71.115 29.4667 70.9657 29.9787 70.667 30.512C70.3683 31.024 70.0057 31.5787 69.579 32.176C69.067 32.9013 68.5337 33.7973 67.979 34.864C67.4457 35.9307 66.9443 37.0613 66.475 38.256C66.027 39.4293 65.6537 40.5493 65.355 41.616C65.0777 42.6827 64.939 43.5787 64.939 44.304C64.939 44.4747 64.9603 44.6347 65.003 44.784C65.067 44.9333 65.163 45.008 65.291 45.008C65.483 45.008 65.835 44.816 66.347 44.432C66.8803 44.0267 67.659 43.5787 68.683 43.088C69.7923 42.5547 70.987 42.16 72.267 41.904C73.5683 41.6267 74.8697 41.488 76.171 41.488C78.411 41.488 80.4057 41.968 82.155 42.928C83.9043 43.888 85.2803 45.2107 86.283 46.896C87.2857 48.56 87.787 50.48 87.787 52.656C87.787 54.768 87.435 56.6987 86.731 58.448C86.0483 60.176 85.0563 61.6693 83.755 62.928C82.475 64.1867 80.939 65.1573 79.147 65.84C77.355 66.5013 75.3497 66.832 73.131 66.832ZM72.939 62.8C75.0723 62.8 76.8537 62.3627 78.283 61.488C79.7123 60.592 80.8003 59.4187 81.547 57.968C82.2937 56.5173 82.667 54.96 82.667 53.296C82.667 51.504 82.251 50.032 81.419 48.88C80.6083 47.728 79.5417 46.8747 78.219 46.32C76.9177 45.7653 75.4883 45.488 73.931 45.488C72.459 45.488 71.0083 45.744 69.579 46.256C68.1497 46.768 66.9657 47.5787 66.027 48.688C65.0883 49.7973 64.619 51.2587 64.619 53.072C64.619 54.48 64.7897 55.7813 65.131 56.976C65.4723 58.1707 65.995 59.2053 66.699 60.08C67.403 60.9333 68.2777 61.6053 69.323 62.096C70.3683 62.5653 71.5737 62.8 72.939 62.8Z" fill="black"/>
<line x1="93" y1="65.5" x2="142" y2="65.5" stroke="#9D9D9D"/>
<line x1="43" y1="93.5" x2="142.02" y2="93.5" stroke="#9D9D9D"/>
<line x1="43" y1="138.5" x2="118" y2="138.5" stroke="#9D9D9D"/>
<line x1="43" y1="117.5" x2="142.02" y2="117.5" stroke="#9D9D9D"/>
<defs>
<filter id="filter0_d_601_2685" x="0" y="0" width="195" height="185" filterUnits="userSpaceOnUse" color-interpolation-filters="sRGB">
<feFlood flood-opacity="0" result="BackgroundImageFix"/>
<feColorMatrix in="SourceAlpha" type="matrix" values="0 0 0 0 0 0 0 0 0 0 0 0 0 0 0 0 0 0 127 0" result="hardAlpha"/>
<feOffset dx="5" dy="5"/>
<feGaussianBlur stdDeviation="2"/>
<feComposite in2="hardAlpha" operator="out"/>
<feColorMatrix type="matrix" values="0 0 0 0 0.0268012 0 0 0 0 0.354147 0 0 0 0 0.989583 0 0 0 0.74 0"/>
<feBlend mode="normal" in2="BackgroundImageFix" result="effect1_dropShadow_601_2685"/>
<feBlend mode="normal" in="SourceGraphic" in2="effect1_dropShadow_601_2685" result="shape"/>
</filter>
</defs>
</svg>
