<svg width="195" height="185" viewBox="0 0 195 185" fill="none" xmlns="http://www.w3.org/2000/svg">
<g filter="url(#filter0_d_601_2682)">
<rect width="186" height="176" rx="30" fill="white"/>
<rect x="0.5" y="0.5" width="185" height="175" rx="29.5" stroke="#9D9D9D"/>
</g>
<path d="M38.1328 67.472C36.5114 67.472 35.0394 67.12 33.7168 66.416C32.4154 65.7333 31.2634 64.7733 30.2608 63.536C29.2794 62.2987 28.4474 60.8373 27.7648 59.152C27.1034 57.4667 26.6021 55.632 26.2608 53.648C25.9194 51.664 25.7488 49.5733 25.7488 47.376C25.7488 44.3467 26.0794 41.5307 26.7408 38.928C27.4021 36.3253 28.3728 34.0533 29.6528 32.112C30.9541 30.1707 32.5434 28.656 34.4208 27.568C36.2981 26.48 38.4528 25.936 40.8848 25.936C42.9754 25.936 44.8101 26.384 46.3888 27.28C47.9674 28.176 49.2901 29.4453 50.3568 31.088C51.4448 32.7093 52.2554 34.64 52.7888 36.88C53.3221 39.0987 53.5888 41.552 53.5888 44.24C53.5888 46.544 53.3968 48.8267 53.0128 51.088C52.6288 53.328 52.0314 55.44 51.2208 57.424C50.4314 59.3867 49.4181 61.1253 48.1808 62.64C46.9648 64.1333 45.5248 65.3067 43.8608 66.16C42.1968 67.0347 40.2874 67.472 38.1328 67.472ZM38.4208 61.616C39.7648 61.616 40.9808 61.296 42.0688 60.656C43.1568 59.9947 44.1061 59.1093 44.9168 58C45.7488 56.8907 46.4421 55.6213 46.9968 54.192C47.5514 52.7413 47.9674 51.2053 48.2448 49.584C48.5434 47.9627 48.6928 46.352 48.6928 44.752C48.6928 43.088 48.5434 41.456 48.2448 39.856C47.9674 38.2347 47.5194 36.784 46.9008 35.504C46.3034 34.2027 45.5141 33.168 44.5328 32.4C43.5514 31.632 42.3674 31.248 40.9808 31.248C39.2741 31.248 37.7808 31.6853 36.5008 32.56C35.2421 33.4347 34.1861 34.6187 33.3328 36.112C32.5008 37.584 31.8714 39.2693 31.4448 41.168C31.0181 43.0453 30.8048 44.9973 30.8048 47.024C30.8048 48.4107 30.9114 49.808 31.1248 51.216C31.3594 52.6027 31.6901 53.9253 32.1168 55.184C32.5648 56.4213 33.0981 57.52 33.7168 58.48C34.3354 59.44 35.0394 60.208 35.8288 60.784C36.6181 61.3387 37.4821 61.616 38.4208 61.616ZM70.8428 68.784C69.0721 68.784 67.3654 68.624 65.7228 68.304C64.1014 68.0053 62.6294 67.6 61.3068 67.088C60.0054 66.5973 58.9708 66.0533 58.2028 65.456C57.4348 64.8373 57.0508 64.2293 57.0508 63.632C57.0508 63.2053 57.1254 62.8533 57.2747 62.576C57.4241 62.2987 57.6054 62.0853 57.8188 61.936C58.0534 61.7653 58.2988 61.648 58.5548 61.584C58.8108 61.4987 59.0561 61.456 59.2908 61.456C59.8241 61.456 60.6561 61.6907 61.7868 62.16C62.9388 62.608 64.3148 63.0667 65.9148 63.536C67.5361 63.984 69.3281 64.208 71.2908 64.208C72.8694 64.208 74.3201 64.0587 75.6428 63.76C76.9868 63.44 78.1494 62.992 79.1308 62.416C80.1334 61.8187 80.9014 61.1147 81.4348 60.304C81.9894 59.4933 82.2668 58.5867 82.2668 57.584C82.2668 56.0907 81.9361 54.9067 81.2748 54.032C80.6348 53.1573 79.7494 52.4747 78.6188 51.984C77.5094 51.4933 76.2294 51.12 74.7788 50.864C73.4988 50.608 72.3894 50.288 71.4508 49.904C70.5121 49.4987 69.7974 49.008 69.3068 48.432C68.8374 47.856 68.6028 47.216 68.6028 46.512C68.6028 45.3813 69.0188 44.5493 69.8508 44.016C70.6828 43.4613 71.8454 42.9707 73.3388 42.544C74.7468 42.1813 75.9628 41.7333 76.9868 41.2C78.0321 40.6453 78.8321 39.952 79.3868 39.12C79.9628 38.2667 80.2508 37.2213 80.2508 35.984C80.2508 34.576 79.8348 33.4987 79.0028 32.752C78.1708 32.0053 77.0401 31.4933 75.6108 31.216C74.1814 30.9173 72.5708 30.768 70.7788 30.768C68.9868 30.768 67.3654 30.9067 65.9148 31.184C64.4854 31.44 63.2588 31.7067 62.2348 31.984C61.2321 32.24 60.4748 32.368 59.9628 32.368C59.2801 32.368 58.7254 32.1973 58.2988 31.856C57.8934 31.4933 57.6908 31.0453 57.6908 30.512C57.6908 29.872 58.0961 29.296 58.9068 28.784C59.7388 28.2507 60.8268 27.8027 62.1708 27.44C63.5148 27.0773 64.9868 26.7893 66.5868 26.576C68.2081 26.3627 69.8188 26.256 71.4188 26.256C74.6828 26.256 77.3814 26.64 79.5148 27.408C81.6481 28.1547 83.2374 29.2107 84.2828 30.576C85.3281 31.92 85.8508 33.4773 85.8508 35.248C85.8508 36.6987 85.5308 38 84.8908 39.152C84.2721 40.2827 83.4081 41.2533 82.2988 42.064C81.1894 42.8533 79.8881 43.472 78.3948 43.92C77.3921 44.304 76.6454 44.6453 76.1548 44.944C75.6854 45.2427 75.4508 45.6693 75.4508 46.224C75.4508 46.8213 75.8241 47.28 76.5708 47.6C77.3174 47.92 78.1494 48.208 79.0668 48.464C80.5174 48.7627 81.9254 49.2533 83.2908 49.936C84.6561 50.5973 85.7761 51.5573 86.6508 52.816C87.5254 54.0533 87.9628 55.7067 87.9628 57.776C87.9628 59.4827 87.6001 61.0187 86.8748 62.384C86.1708 63.728 85.1041 64.88 83.6748 65.84C82.2668 66.8 80.4854 67.5253 78.3308 68.016C76.1974 68.528 73.7014 68.784 70.8428 68.784Z" fill="black"/>
<line x1="93" y1="65.5" x2="142" y2="65.5" stroke="#9D9D9D"/>
<line x1="43" y1="93.5" x2="142.02" y2="93.5" stroke="#9D9D9D"/>
<line x1="43" y1="138.5" x2="118" y2="138.5" stroke="#9D9D9D"/>
<line x1="43" y1="117.5" x2="142.02" y2="117.5" stroke="#9D9D9D"/>
<defs>
<filter id="filter0_d_601_2682" x="0" y="0" width="195" height="185" filterUnits="userSpaceOnUse" color-interpolation-filters="sRGB">
<feFlood flood-opacity="0" result="BackgroundImageFix"/>
<feColorMatrix in="SourceAlpha" type="matrix" values="0 0 0 0 0 0 0 0 0 0 0 0 0 0 0 0 0 0 127 0" result="hardAlpha"/>
<feOffset dx="5" dy="5"/>
<feGaussianBlur stdDeviation="2"/>
<feComposite in2="hardAlpha" operator="out"/>
<feColorMatrix type="matrix" values="0 0 0 0 0.972917 0 0 0 0 0.729647 0 0 0 0 0.257418 0 0 0 0.74 0"/>
<feBlend mode="normal" in2="BackgroundImageFix" result="effect1_dropShadow_601_2682"/>
<feBlend mode="normal" in="SourceGraphic" in2="effect1_dropShadow_601_2682" result="shape"/>
</filter>
</defs>
</svg>
