<svg width="195" height="185" viewBox="0 0 195 185" fill="none" xmlns="http://www.w3.org/2000/svg">
<g filter="url(#filter0_d_601_2688)">
<rect width="186" height="176" rx="30" fill="white"/>
<rect x="0.5" y="0.5" width="185" height="175" rx="29.5" stroke="#9D9D9D"/>
</g>
<path d="M38.7265 67.472C37.1052 67.472 35.6332 67.12 34.3105 66.416C33.0092 65.7333 31.8572 64.7733 30.8545 63.536C29.8732 62.2987 29.0412 60.8373 28.3585 59.152C27.6972 57.4667 27.1958 55.632 26.8545 53.648C26.5132 51.664 26.3425 49.5733 26.3425 47.376C26.3425 44.3467 26.6732 41.5307 27.3345 38.928C27.9958 36.3253 28.9665 34.0533 30.2465 32.112C31.5478 30.1707 33.1372 28.656 35.0145 27.568C36.8918 26.48 39.0465 25.936 41.4785 25.936C43.5692 25.936 45.4038 26.384 46.9825 27.28C48.5612 28.176 49.8838 29.4453 50.9505 31.088C52.0385 32.7093 52.8492 34.64 53.3825 36.88C53.9158 39.0987 54.1825 41.552 54.1825 44.24C54.1825 46.544 53.9905 48.8267 53.6065 51.088C53.2225 53.328 52.6252 55.44 51.8145 57.424C51.0252 59.3867 50.0118 61.1253 48.7745 62.64C47.5585 64.1333 46.1185 65.3067 44.4545 66.16C42.7905 67.0347 40.8812 67.472 38.7265 67.472ZM39.0145 61.616C40.3585 61.616 41.5745 61.296 42.6625 60.656C43.7505 59.9947 44.6998 59.1093 45.5105 58C46.3425 56.8907 47.0358 55.6213 47.5905 54.192C48.1452 52.7413 48.5612 51.2053 48.8385 49.584C49.1372 47.9627 49.2865 46.352 49.2865 44.752C49.2865 43.088 49.1372 41.456 48.8385 39.856C48.5612 38.2347 48.1132 36.784 47.4945 35.504C46.8972 34.2027 46.1078 33.168 45.1265 32.4C44.1452 31.632 42.9612 31.248 41.5745 31.248C39.8678 31.248 38.3745 31.6853 37.0945 32.56C35.8358 33.4347 34.7798 34.6187 33.9265 36.112C33.0945 37.584 32.4652 39.2693 32.0385 41.168C31.6118 43.0453 31.3985 44.9973 31.3985 47.024C31.3985 48.4107 31.5052 49.808 31.7185 51.216C31.9532 52.6027 32.2838 53.9253 32.7105 55.184C33.1585 56.4213 33.6918 57.52 34.3105 58.48C34.9292 59.44 35.6332 60.208 36.4225 60.784C37.2118 61.3387 38.0758 61.616 39.0145 61.616ZM67.2445 66.992C66.6685 66.992 66.1992 66.9173 65.8365 66.768C65.4738 66.6187 65.2178 66.4053 65.0685 66.128C64.9192 65.8507 64.8445 65.52 64.8445 65.136C64.8445 64.56 65.0365 64.08 65.4205 63.696C65.8258 63.2907 66.4978 62.9067 67.4365 62.544C68.3325 62.16 69.3565 61.6267 70.5085 60.944C71.6818 60.24 72.8765 59.4507 74.0925 58.576C75.3085 57.7013 76.4285 56.784 77.4525 55.824C78.4765 54.8427 79.3085 53.8613 79.9485 52.88C80.5885 51.8987 80.9085 50.96 80.9085 50.064C80.9085 49.6587 80.8658 49.3813 80.7805 49.232C80.7165 49.0827 80.5885 49.008 80.3965 49.008C80.1832 49.008 79.7885 49.2 79.2125 49.584C78.5938 50.0107 77.6552 50.5227 76.3965 51.12C75.1378 51.7173 73.4205 52.016 71.2445 52.016C68.7698 52.016 66.6045 51.5893 64.7485 50.736C62.8925 49.8827 61.4418 48.6133 60.3965 46.928C59.3725 45.2213 58.8605 43.1093 58.8605 40.592C58.8605 38.544 59.2232 36.7307 59.9485 35.152C60.6738 33.5733 61.6872 32.24 62.9885 31.152C64.3112 30.064 65.8365 29.2427 67.5645 28.688C69.3138 28.112 71.1912 27.824 73.1965 27.824C76.0552 27.824 78.5832 28.272 80.7805 29.168C82.9992 30.064 84.7485 31.504 86.0285 33.488C87.3085 35.4507 87.9485 38.0533 87.9485 41.296C87.9485 45.0507 87.3512 48.3573 86.1565 51.216C84.9832 54.0747 83.2232 56.6347 80.8765 58.896C78.5512 61.136 75.6392 63.248 72.1405 65.232C71.2232 65.7653 70.3485 66.192 69.5165 66.512C68.6845 66.832 67.9272 66.992 67.2445 66.992ZM72.3005 48.144C73.5592 48.144 74.7965 47.9627 76.0125 47.6C77.2285 47.216 78.3378 46.6613 79.3405 45.936C80.3432 45.1893 81.1432 44.272 81.7405 43.184C82.3378 42.0747 82.6365 40.784 82.6365 39.312C82.6365 37.648 82.2098 36.24 81.3565 35.088C80.5032 33.936 79.3725 33.0613 77.9645 32.464C76.5565 31.8453 75.0312 31.536 73.3885 31.536C71.4472 31.536 69.7618 31.888 68.3325 32.592C66.9245 33.296 65.8258 34.32 65.0365 35.664C64.2685 36.9867 63.8845 38.6293 63.8845 40.592C63.8845 42.1067 64.2685 43.44 65.0365 44.592C65.8045 45.7227 66.8285 46.5973 68.1085 47.216C69.3885 47.8347 70.7858 48.144 72.3005 48.144Z" fill="black"/>
<line x1="93" y1="65.5" x2="142" y2="65.5" stroke="#9D9D9D"/>
<line x1="43" y1="93.5" x2="142.02" y2="93.5" stroke="#9D9D9D"/>
<line x1="43" y1="138.5" x2="118" y2="138.5" stroke="#9D9D9D"/>
<line x1="43" y1="117.5" x2="142.02" y2="117.5" stroke="#9D9D9D"/>
<defs>
<filter id="filter0_d_601_2688" x="0" y="0" width="195" height="185" filterUnits="userSpaceOnUse" color-interpolation-filters="sRGB">
<feFlood flood-opacity="0" result="BackgroundImageFix"/>
<feColorMatrix in="SourceAlpha" type="matrix" values="0 0 0 0 0 0 0 0 0 0 0 0 0 0 0 0 0 0 127 0" result="hardAlpha"/>
<feOffset dx="5" dy="5"/>
<feGaussianBlur stdDeviation="2"/>
<feComposite in2="hardAlpha" operator="out"/>
<feColorMatrix type="matrix" values="0 0 0 0 1 0 0 0 0 0.0541667 0 0 0 0 0.0541667 0 0 0 0.74 0"/>
<feBlend mode="normal" in2="BackgroundImageFix" result="effect1_dropShadow_601_2688"/>
<feBlend mode="normal" in="SourceGraphic" in2="effect1_dropShadow_601_2688" result="shape"/>
</filter>
</defs>
</svg>
