<svg width="195" height="185" viewBox="0 0 195 185" fill="none" xmlns="http://www.w3.org/2000/svg">
<g filter="url(#filter0_d_601_2687)">
<rect width="186" height="176" rx="30" fill="white"/>
<rect x="0.5" y="0.5" width="185" height="175" rx="29.5" stroke="#9D9D9D"/>
</g>
<path d="M40.8828 67.472C39.2614 67.472 37.7894 67.12 36.4668 66.416C35.1654 65.7333 34.0134 64.7733 33.0108 63.536C32.0294 62.2987 31.1974 60.8373 30.5148 59.152C29.8534 57.4667 29.3521 55.632 29.0108 53.648C28.6694 51.664 28.4988 49.5733 28.4988 47.376C28.4988 44.3467 28.8294 41.5307 29.4908 38.928C30.1521 36.3253 31.1228 34.0533 32.4028 32.112C33.7041 30.1707 35.2934 28.656 37.1708 27.568C39.0481 26.48 41.2028 25.936 43.6348 25.936C45.7254 25.936 47.5601 26.384 49.1388 27.28C50.7174 28.176 52.0401 29.4453 53.1068 31.088C54.1948 32.7093 55.0054 34.64 55.5388 36.88C56.0721 39.0987 56.3388 41.552 56.3388 44.24C56.3388 46.544 56.1468 48.8267 55.7628 51.088C55.3788 53.328 54.7814 55.44 53.9708 57.424C53.1814 59.3867 52.1681 61.1253 50.9308 62.64C49.7148 64.1333 48.2748 65.3067 46.6108 66.16C44.9468 67.0347 43.0374 67.472 40.8828 67.472ZM41.1708 61.616C42.5148 61.616 43.7308 61.296 44.8188 60.656C45.9068 59.9947 46.8561 59.1093 47.6668 58C48.4988 56.8907 49.1921 55.6213 49.7468 54.192C50.3014 52.7413 50.7174 51.2053 50.9948 49.584C51.2934 47.9627 51.4428 46.352 51.4428 44.752C51.4428 43.088 51.2934 41.456 50.9948 39.856C50.7174 38.2347 50.2694 36.784 49.6508 35.504C49.0534 34.2027 48.2641 33.168 47.2828 32.4C46.3014 31.632 45.1174 31.248 43.7308 31.248C42.0241 31.248 40.5308 31.6853 39.2508 32.56C37.9921 33.4347 36.9361 34.6187 36.0828 36.112C35.2508 37.584 34.6214 39.2693 34.1948 41.168C33.7681 43.0453 33.5548 44.9973 33.5548 47.024C33.5548 48.4107 33.6614 49.808 33.8748 51.216C34.1094 52.6027 34.4401 53.9253 34.8668 55.184C35.3148 56.4213 35.8481 57.52 36.4668 58.48C37.0854 59.44 37.7894 60.208 38.5788 60.784C39.3681 61.3387 40.2321 61.616 41.1708 61.616ZM68.5688 67.184C68.1421 67.184 67.7261 67.0987 67.3208 66.928C66.9368 66.7787 66.6168 66.512 66.3608 66.128C66.1261 65.7653 66.0088 65.264 66.0088 64.624C66.0088 62.384 66.1688 60.304 66.4888 58.384C66.8301 56.464 67.2888 54.6827 67.8648 53.04C68.4408 51.376 69.0914 49.84 69.8168 48.432C70.5634 47.024 71.3528 45.744 72.1848 44.592C73.2301 42.992 74.2754 41.5733 75.3208 40.336C76.3874 39.0987 77.3581 37.9893 78.2328 37.008C79.1288 36.0053 79.8434 35.0987 80.3768 34.288C80.9101 33.4773 81.1768 32.7307 81.1768 32.048C81.1768 31.0453 80.7288 30.3947 79.8328 30.096C78.9581 29.776 77.7101 29.616 76.0888 29.616C74.1474 29.616 72.2274 29.7013 70.3288 29.872C68.4514 30.0213 66.7768 30.1707 65.3048 30.32C63.8541 30.4693 62.7768 30.544 62.0728 30.544C61.4114 30.544 60.8994 30.4587 60.5368 30.288C60.1954 30.1173 60.0247 29.7227 60.0247 29.104C60.0247 28.464 60.4301 27.9093 61.2408 27.44C62.0728 26.9707 63.1714 26.5867 64.5368 26.288C65.6248 26.096 66.8941 25.936 68.3448 25.808C69.7954 25.68 71.2781 25.584 72.7928 25.52C74.3074 25.4347 75.6834 25.392 76.9208 25.392C78.4141 25.392 79.7688 25.4773 80.9848 25.648C82.2008 25.8187 83.2461 26.1173 84.1208 26.544C84.9954 26.9493 85.6674 27.5253 86.1368 28.272C86.6061 29.0187 86.8408 29.9787 86.8408 31.152C86.8408 32.1973 86.5101 33.3067 85.8488 34.48C85.2088 35.632 84.3661 36.8587 83.3208 38.16C82.2754 39.4613 81.1554 40.8693 79.9608 42.384C78.7661 43.8773 77.6354 45.4987 76.5688 47.248C75.2248 49.3387 74.0514 51.7707 73.0488 54.544C72.0674 57.296 71.5128 60.432 71.3848 63.952C71.2994 64.6987 71.1501 65.3173 70.9368 65.808C70.7234 66.2987 70.4248 66.6507 70.0408 66.864C69.6568 67.0773 69.1661 67.184 68.5688 67.184Z" fill="black"/>
<line x1="93" y1="65.5" x2="142" y2="65.5" stroke="#9D9D9D"/>
<line x1="43" y1="93.5" x2="142.02" y2="93.5" stroke="#9D9D9D"/>
<line x1="43" y1="138.5" x2="118" y2="138.5" stroke="#9D9D9D"/>
<line x1="43" y1="117.5" x2="142.02" y2="117.5" stroke="#9D9D9D"/>
<defs>
<filter id="filter0_d_601_2687" x="0" y="0" width="195" height="185" filterUnits="userSpaceOnUse" color-interpolation-filters="sRGB">
<feFlood flood-opacity="0" result="BackgroundImageFix"/>
<feColorMatrix in="SourceAlpha" type="matrix" values="0 0 0 0 0 0 0 0 0 0 0 0 0 0 0 0 0 0 127 0" result="hardAlpha"/>
<feOffset dx="5" dy="5"/>
<feGaussianBlur stdDeviation="2"/>
<feComposite in2="hardAlpha" operator="out"/>
<feColorMatrix type="matrix" values="0 0 0 0 0.0268012 0 0 0 0 0.354147 0 0 0 0 0.989583 0 0 0 0.74 0"/>
<feBlend mode="normal" in2="BackgroundImageFix" result="effect1_dropShadow_601_2687"/>
<feBlend mode="normal" in="SourceGraphic" in2="effect1_dropShadow_601_2687" result="shape"/>
</filter>
</defs>
</svg>
