<svg width="195" height="185" viewBox="0 0 195 185" fill="none" xmlns="http://www.w3.org/2000/svg">
<g filter="url(#filter0_d_601_2684)">
<rect width="186" height="176" rx="30" fill="white"/>
<rect x="0.5" y="0.5" width="185" height="175" rx="29.5" stroke="#9D9D9D"/>
</g>
<path d="M38.9453 67.472C37.3239 67.472 35.8519 67.12 34.5293 66.416C33.2279 65.7333 32.0759 64.7733 31.0733 63.536C30.0919 62.2987 29.2599 60.8373 28.5773 59.152C27.9159 57.4667 27.4146 55.632 27.0733 53.648C26.7319 51.664 26.5613 49.5733 26.5613 47.376C26.5613 44.3467 26.8919 41.5307 27.5533 38.928C28.2146 36.3253 29.1853 34.0533 30.4653 32.112C31.7666 30.1707 33.3559 28.656 35.2333 27.568C37.1106 26.48 39.2653 25.936 41.6973 25.936C43.7879 25.936 45.6226 26.384 47.2013 27.28C48.7799 28.176 50.1026 29.4453 51.1693 31.088C52.2573 32.7093 53.0679 34.64 53.6013 36.88C54.1346 39.0987 54.4013 41.552 54.4013 44.24C54.4013 46.544 54.2093 48.8267 53.8253 51.088C53.4413 53.328 52.8439 55.44 52.0333 57.424C51.2439 59.3867 50.2306 61.1253 48.9933 62.64C47.7773 64.1333 46.3373 65.3067 44.6733 66.16C43.0093 67.0347 41.0999 67.472 38.9453 67.472ZM39.2333 61.616C40.5773 61.616 41.7933 61.296 42.8813 60.656C43.9693 59.9947 44.9186 59.1093 45.7293 58C46.5613 56.8907 47.2546 55.6213 47.8093 54.192C48.3639 52.7413 48.7799 51.2053 49.0573 49.584C49.3559 47.9627 49.5053 46.352 49.5053 44.752C49.5053 43.088 49.3559 41.456 49.0573 39.856C48.7799 38.2347 48.3319 36.784 47.7133 35.504C47.1159 34.2027 46.3266 33.168 45.3453 32.4C44.3639 31.632 43.1799 31.248 41.7933 31.248C40.0866 31.248 38.5933 31.6853 37.3133 32.56C36.0546 33.4347 34.9986 34.6187 34.1453 36.112C33.3133 37.584 32.6839 39.2693 32.2573 41.168C31.8306 43.0453 31.6173 44.9973 31.6173 47.024C31.6173 48.4107 31.7239 49.808 31.9373 51.216C32.1719 52.6027 32.5026 53.9253 32.9293 55.184C33.3773 56.4213 33.9106 57.52 34.5293 58.48C35.1479 59.44 35.8519 60.208 36.6413 60.784C37.4306 61.3387 38.2946 61.616 39.2333 61.616ZM77.4793 67.664C76.7966 67.664 76.2526 67.472 75.8472 67.088C75.4419 66.704 75.2393 66.0427 75.2393 65.104C75.2393 64.7627 75.2393 64.3253 75.2393 63.792C75.2606 63.2373 75.2713 62.6613 75.2713 62.064C75.2926 61.4453 75.3033 60.848 75.3033 60.272C75.3246 59.6747 75.3353 59.1307 75.3353 58.64C75.2926 57.616 75.0899 56.9013 74.7273 56.496C74.3646 56.0693 73.4366 55.8453 71.9433 55.824C70.2793 55.8027 68.6473 55.7493 67.0473 55.664C65.4686 55.5787 64.1139 55.3973 62.9833 55.12C62.0233 54.8853 61.2553 54.448 60.6793 53.808C60.1033 53.168 59.6873 52.3573 59.4313 51.376C59.1966 50.3947 59.0793 49.3067 59.0793 48.112C59.0793 47.216 59.1753 46.1493 59.3673 44.912C59.5806 43.6747 59.8366 42.384 60.1353 41.04C60.4553 39.696 60.7859 38.4053 61.1273 37.168C61.4899 35.9307 61.8099 34.864 62.0873 33.968C62.4499 32.7307 62.8019 31.696 63.1433 30.864C63.5059 30.0107 63.8899 29.3813 64.2953 28.976C64.7219 28.5493 65.2233 28.336 65.7993 28.336C66.1193 28.336 66.3859 28.4 66.5993 28.528C66.8339 28.656 67.0046 28.8587 67.1113 29.136C67.2393 29.392 67.3033 29.7227 67.3033 30.128C67.3033 30.7467 67.1966 31.5573 66.9833 32.56C66.7699 33.5413 66.5139 34.64 66.2153 35.856C65.9166 37.0507 65.6179 38.2987 65.3193 39.6C65.0206 40.88 64.7646 42.1387 64.5513 43.376C64.3379 44.6133 64.2313 45.7547 64.2313 46.8C64.2313 47.696 64.2953 48.4213 64.4233 48.976C64.5726 49.5093 64.8179 49.9253 65.1593 50.224C65.5006 50.5227 65.9806 50.7573 66.5993 50.928C67.3246 51.1413 68.2846 51.28 69.4793 51.344C70.6739 51.408 71.8153 51.44 72.9033 51.44C74.1406 51.44 74.9513 51.28 75.3353 50.96C75.7193 50.6187 75.9113 50.0427 75.9113 49.232C75.9113 48.912 75.9219 48.336 75.9433 47.504C75.9859 46.672 76.0286 45.68 76.0713 44.528C76.1139 43.3547 76.1673 42.1173 76.2313 40.816C76.2953 39.5147 76.3486 38.2453 76.3913 37.008C76.4339 35.7493 76.4766 34.6187 76.5193 33.616C76.5619 32.592 76.5939 31.8027 76.6153 31.248C76.6793 30.1173 76.8713 29.0933 77.1913 28.176C77.5326 27.2587 78.0446 26.8 78.7273 26.8C79.2179 26.8 79.6126 26.9173 79.9113 27.152C80.2313 27.3867 80.4766 27.8453 80.6473 28.528C80.8179 29.2107 80.9353 30.2133 80.9993 31.536C81.0206 32.048 81.0313 32.72 81.0313 33.552C81.0526 34.3627 81.0526 35.28 81.0313 36.304C81.0313 37.328 81.0206 38.4267 80.9993 39.6C80.9993 40.752 80.9886 41.9467 80.9673 43.184C80.9673 44.4 80.9566 45.6053 80.9353 46.8C80.9353 47.9947 80.9353 49.1467 80.9353 50.256C80.9353 50.6827 81.0526 50.9813 81.2873 51.152C81.5433 51.3013 81.8953 51.376 82.3433 51.376C82.9406 51.376 83.5699 51.3333 84.2313 51.248C84.9139 51.1627 85.5539 51.1413 86.1513 51.184C86.7059 51.248 87.1646 51.3867 87.5273 51.6C87.8899 51.8133 88.0713 52.208 88.0713 52.784C88.0713 53.5947 87.8153 54.16 87.3033 54.48C86.7913 54.7787 86.1299 54.9707 85.3193 55.056C84.7859 55.0987 84.1993 55.1733 83.5593 55.28C82.9193 55.3653 82.3753 55.4613 81.9273 55.568C81.3299 55.696 80.9139 55.9947 80.6793 56.464C80.4659 56.912 80.3273 57.6693 80.2633 58.736C80.2419 59.376 80.1993 60.1013 80.1353 60.912C80.0926 61.7227 80.0393 62.5013 79.9753 63.248C79.9326 63.9947 79.8793 64.5813 79.8153 65.008C79.6659 65.9253 79.3993 66.5973 79.0153 67.024C78.6526 67.4507 78.1406 67.664 77.4793 67.664Z" fill="black"/>
<line x1="93" y1="65.5" x2="142" y2="65.5" stroke="#9D9D9D"/>
<line x1="43" y1="93.5" x2="142.02" y2="93.5" stroke="#9D9D9D"/>
<line x1="43" y1="138.5" x2="118" y2="138.5" stroke="#9D9D9D"/>
<line x1="43" y1="117.5" x2="142.02" y2="117.5" stroke="#9D9D9D"/>
<defs>
<filter id="filter0_d_601_2684" x="0" y="0" width="195" height="185" filterUnits="userSpaceOnUse" color-interpolation-filters="sRGB">
<feFlood flood-opacity="0" result="BackgroundImageFix"/>
<feColorMatrix in="SourceAlpha" type="matrix" values="0 0 0 0 0 0 0 0 0 0 0 0 0 0 0 0 0 0 127 0" result="hardAlpha"/>
<feOffset dx="5" dy="5"/>
<feGaussianBlur stdDeviation="2"/>
<feComposite in2="hardAlpha" operator="out"/>
<feColorMatrix type="matrix" values="0 0 0 0 0.972917 0 0 0 0 0.729647 0 0 0 0 0.257418 0 0 0 0.74 0"/>
<feBlend mode="normal" in2="BackgroundImageFix" result="effect1_dropShadow_601_2684"/>
<feBlend mode="normal" in="SourceGraphic" in2="effect1_dropShadow_601_2684" result="shape"/>
</filter>
</defs>
</svg>
