<svg width="195" height="185" viewBox="0 0 195 185" fill="none" xmlns="http://www.w3.org/2000/svg">
<g filter="url(#filter0_d_601_2691)">
<rect width="186" height="176" rx="30" fill="white"/>
<rect x="0.5" y="0.5" width="185" height="175" rx="29.5" stroke="#9D9D9D"/>
</g>
<path d="M41.9795 68.144C41.0622 68.144 40.3475 67.824 39.8355 67.184C39.3448 66.544 39.0995 65.6373 39.0995 64.464C39.0995 63.5467 39.1315 62.4053 39.1955 61.04C39.2595 59.6533 39.3448 58.1387 39.4515 56.496C39.5582 54.832 39.6755 53.1147 39.8035 51.344C39.9315 49.552 40.0595 47.792 40.1875 46.064C40.3368 44.3147 40.4648 42.6613 40.5715 41.104C40.6782 39.5253 40.7635 38.128 40.8275 36.912C40.8915 35.696 40.9235 34.736 40.9235 34.032C40.9235 33.2427 40.8702 32.6987 40.7635 32.4C40.6568 32.08 40.3582 31.888 39.8675 31.824C39.3982 31.7813 38.8328 31.888 38.1715 32.144C37.5315 32.3787 36.9022 32.624 36.2835 32.88C35.6862 33.136 35.2062 33.2427 34.8435 33.2C34.5022 33.0933 34.2568 32.9333 34.1075 32.72C33.9795 32.5067 33.9155 32.2613 33.9155 31.984C33.9155 31.4507 34.2462 30.8533 34.9075 30.192C35.5902 29.5307 36.4328 28.912 37.4355 28.336C38.4382 27.7387 39.4408 27.248 40.4435 26.864C41.4675 26.4587 42.3208 26.256 43.0035 26.256C43.8142 26.256 44.4648 26.48 44.9555 26.928C45.4462 27.3547 45.8195 27.952 46.0755 28.72C46.3528 29.4667 46.5342 30.32 46.6195 31.28C46.7262 32.2187 46.7795 33.2 46.7795 34.224C46.7795 35.056 46.7582 36.0693 46.7155 37.264C46.6728 38.4587 46.6088 39.76 46.5235 41.168C46.4595 42.5547 46.3742 44.016 46.2675 45.552C46.1608 47.088 46.0435 48.656 45.9155 50.256C45.8088 51.8347 45.7022 53.392 45.5955 54.928C45.5102 56.4427 45.4142 57.904 45.3075 59.312C45.2008 60.6987 45.1155 61.968 45.0515 63.12C44.8382 64.8267 44.4968 66.0853 44.0275 66.896C43.5582 67.728 42.8755 68.144 41.9795 68.144ZM59.469 67.376C58.2103 67.2907 57.0797 67.12 56.077 66.864C55.0743 66.608 54.285 66.2027 53.709 65.648C53.133 65.0933 52.845 64.336 52.845 63.376C52.845 62.4587 52.9943 61.616 53.293 60.848C53.613 60.08 54.2423 59.248 55.181 58.352C55.949 57.4987 57.0477 56.432 58.477 55.152C59.9063 53.8507 61.4743 52.4427 63.181 50.928C64.8877 49.392 66.5197 47.856 68.077 46.32C69.1223 45.296 70.0503 44.2613 70.861 43.216C71.6717 42.1707 72.3117 41.1467 72.781 40.144C73.2717 39.12 73.517 38.1707 73.517 37.296C73.517 34.992 72.909 33.392 71.693 32.496C70.4983 31.6 68.8343 31.152 66.701 31.152C64.8237 31.152 63.2343 31.44 61.933 32.016C60.653 32.592 59.597 33.2747 58.765 34.064C58.189 34.6187 57.6557 35.2373 57.165 35.92C56.6957 36.6027 56.2477 37.2 55.821 37.712C55.4157 38.224 54.9997 38.48 54.573 38.48C54.0823 38.48 53.6557 38.3307 53.293 38.032C52.9303 37.7333 52.749 37.2853 52.749 36.688C52.749 35.728 53.0583 34.6613 53.677 33.488C54.317 32.3147 55.2343 31.1947 56.429 30.128C57.6237 29.0613 59.085 28.1867 60.813 27.504C62.5623 26.8213 64.557 26.48 66.797 26.48C68.6317 26.48 70.2957 26.672 71.789 27.056C73.2823 27.4187 74.573 28.0053 75.661 28.816C76.749 29.6053 77.581 30.6293 78.157 31.888C78.7543 33.1467 79.053 34.672 79.053 36.464C79.053 37.8293 78.797 39.1413 78.285 40.4C77.7943 41.6373 77.0903 42.8533 76.173 44.048C75.277 45.2427 74.2103 46.4693 72.973 47.728C72.205 48.5173 71.3197 49.392 70.317 50.352C69.3357 51.312 68.3117 52.2933 67.245 53.296C66.1997 54.2987 65.2077 55.2373 64.269 56.112C63.3517 56.9653 62.5623 57.7013 61.901 58.32C61.325 58.832 60.8983 59.3227 60.621 59.792C60.3437 60.24 60.205 60.7093 60.205 61.2C60.205 61.52 60.429 61.7547 60.877 61.904C61.325 62.032 61.869 62.1173 62.509 62.16C63.1703 62.2027 63.7997 62.224 64.397 62.224C65.3997 62.224 66.6583 62.1387 68.173 61.968C69.6877 61.776 71.1917 61.5947 72.685 61.424C74.1783 61.232 75.3837 61.136 76.301 61.136C76.9837 61.136 77.5383 61.2853 77.965 61.584C78.413 61.8613 78.637 62.2773 78.637 62.832C78.637 63.5573 78.413 64.176 77.965 64.688C77.517 65.1787 76.8343 65.5947 75.917 65.936C75.021 66.256 73.869 66.512 72.461 66.704C71.053 66.9173 69.3783 67.0987 67.437 67.248C66.285 67.312 64.9943 67.3653 63.565 67.408C62.157 67.4507 60.7917 67.44 59.469 67.376Z" fill="black"/>
<line x1="93" y1="65.5" x2="142" y2="65.5" stroke="#9D9D9D"/>
<line x1="43" y1="93.5" x2="142.02" y2="93.5" stroke="#9D9D9D"/>
<line x1="43" y1="138.5" x2="118" y2="138.5" stroke="#9D9D9D"/>
<line x1="43" y1="117.5" x2="142.02" y2="117.5" stroke="#9D9D9D"/>
<defs>
<filter id="filter0_d_601_2691" x="0" y="0" width="195" height="185" filterUnits="userSpaceOnUse" color-interpolation-filters="sRGB">
<feFlood flood-opacity="0" result="BackgroundImageFix"/>
<feColorMatrix in="SourceAlpha" type="matrix" values="0 0 0 0 0 0 0 0 0 0 0 0 0 0 0 0 0 0 127 0" result="hardAlpha"/>
<feOffset dx="5" dy="5"/>
<feGaussianBlur stdDeviation="2"/>
<feComposite in2="hardAlpha" operator="out"/>
<feColorMatrix type="matrix" values="0 0 0 0 0.2825 0 0 0 0 0.862567 0 0 0 0 0.941667 0 0 0 0.74 0"/>
<feBlend mode="normal" in2="BackgroundImageFix" result="effect1_dropShadow_601_2691"/>
<feBlend mode="normal" in="SourceGraphic" in2="effect1_dropShadow_601_2691" result="shape"/>
</filter>
</defs>
</svg>
