<svg width="195" height="185" viewBox="0 0 195 185" fill="none" xmlns="http://www.w3.org/2000/svg">
<g filter="url(#filter0_d_601_2681)">
<rect width="186" height="176" rx="30" fill="white"/>
<rect x="0.5" y="0.5" width="185" height="175" rx="29.5" stroke="#9D9D9D"/>
</g>
<path d="M45.8203 67.472C44.1989 67.472 42.7269 67.12 41.4043 66.416C40.1029 65.7333 38.9509 64.7733 37.9483 63.536C36.9669 62.2987 36.1349 60.8373 35.4523 59.152C34.7909 57.4667 34.2896 55.632 33.9483 53.648C33.6069 51.664 33.4363 49.5733 33.4363 47.376C33.4363 44.3467 33.7669 41.5307 34.4283 38.928C35.0896 36.3253 36.0603 34.0533 37.3403 32.112C38.6416 30.1707 40.2309 28.656 42.1083 27.568C43.9856 26.48 46.1403 25.936 48.5723 25.936C50.6629 25.936 52.4976 26.384 54.0763 27.28C55.6549 28.176 56.9776 29.4453 58.0443 31.088C59.1323 32.7093 59.9429 34.64 60.4763 36.88C61.0096 39.0987 61.2763 41.552 61.2763 44.24C61.2763 46.544 61.0843 48.8267 60.7003 51.088C60.3163 53.328 59.7189 55.44 58.9083 57.424C58.1189 59.3867 57.1056 61.1253 55.8683 62.64C54.6523 64.1333 53.2123 65.3067 51.5483 66.16C49.8843 67.0347 47.9749 67.472 45.8203 67.472ZM46.1083 61.616C47.4523 61.616 48.6683 61.296 49.7563 60.656C50.8443 59.9947 51.7936 59.1093 52.6043 58C53.4363 56.8907 54.1296 55.6213 54.6843 54.192C55.2389 52.7413 55.6549 51.2053 55.9323 49.584C56.2309 47.9627 56.3803 46.352 56.3803 44.752C56.3803 43.088 56.2309 41.456 55.9323 39.856C55.6549 38.2347 55.2069 36.784 54.5883 35.504C53.9909 34.2027 53.2016 33.168 52.2203 32.4C51.2389 31.632 50.0549 31.248 48.6683 31.248C46.9616 31.248 45.4683 31.6853 44.1883 32.56C42.9296 33.4347 41.8736 34.6187 41.0203 36.112C40.1883 37.584 39.5589 39.2693 39.1323 41.168C38.7056 43.0453 38.4923 44.9973 38.4923 47.024C38.4923 48.4107 38.5989 49.808 38.8123 51.216C39.0469 52.6027 39.3776 53.9253 39.8043 55.184C40.2523 56.4213 40.7856 57.52 41.4043 58.48C42.0229 59.44 42.7269 60.208 43.5163 60.784C44.3056 61.3387 45.1696 61.616 46.1083 61.616ZM73.6983 68.144C72.7809 68.144 72.0663 67.824 71.5543 67.184C71.0636 66.544 70.8183 65.6373 70.8183 64.464C70.8183 63.5467 70.8503 62.4053 70.9143 61.04C70.9783 59.6533 71.0636 58.1387 71.1703 56.496C71.2769 54.832 71.3943 53.1147 71.5223 51.344C71.6503 49.552 71.7783 47.792 71.9062 46.064C72.0556 44.3147 72.1836 42.6613 72.2903 41.104C72.3969 39.5253 72.4823 38.128 72.5463 36.912C72.6103 35.696 72.6423 34.736 72.6423 34.032C72.6423 33.2427 72.5889 32.6987 72.4823 32.4C72.3756 32.08 72.0769 31.888 71.5863 31.824C71.1169 31.7813 70.5516 31.888 69.8903 32.144C69.2503 32.3787 68.6209 32.624 68.0023 32.88C67.4049 33.136 66.9249 33.2427 66.5623 33.2C66.2209 33.0933 65.9756 32.9333 65.8263 32.72C65.6983 32.5067 65.6343 32.2613 65.6343 31.984C65.6343 31.4507 65.9649 30.8533 66.6263 30.192C67.3089 29.5307 68.1516 28.912 69.1543 28.336C70.1569 27.7387 71.1596 27.248 72.1623 26.864C73.1863 26.4587 74.0396 26.256 74.7223 26.256C75.5329 26.256 76.1836 26.48 76.6743 26.928C77.1649 27.3547 77.5383 27.952 77.7943 28.72C78.0716 29.4667 78.2529 30.32 78.3383 31.28C78.4449 32.2187 78.4983 33.2 78.4983 34.224C78.4983 35.056 78.4769 36.0693 78.4343 37.264C78.3916 38.4587 78.3276 39.76 78.2423 41.168C78.1783 42.5547 78.0929 44.016 77.9863 45.552C77.8796 47.088 77.7623 48.656 77.6343 50.256C77.5276 51.8347 77.4209 53.392 77.3143 54.928C77.2289 56.4427 77.1329 57.904 77.0263 59.312C76.9196 60.6987 76.8343 61.968 76.7703 63.12C76.5569 64.8267 76.2156 66.0853 75.7463 66.896C75.2769 67.728 74.5943 68.144 73.6983 68.144Z" fill="black"/>
<line x1="93" y1="65.5" x2="142" y2="65.5" stroke="#9D9D9D"/>
<line x1="43" y1="93.5" x2="142.02" y2="93.5" stroke="#9D9D9D"/>
<line x1="43" y1="138.5" x2="118" y2="138.5" stroke="#9D9D9D"/>
<line x1="43" y1="117.5" x2="142.02" y2="117.5" stroke="#9D9D9D"/>
<defs>
<filter id="filter0_d_601_2681" x="0" y="0" width="195" height="185" filterUnits="userSpaceOnUse" color-interpolation-filters="sRGB">
<feFlood flood-opacity="0" result="BackgroundImageFix"/>
<feColorMatrix in="SourceAlpha" type="matrix" values="0 0 0 0 0 0 0 0 0 0 0 0 0 0 0 0 0 0 127 0" result="hardAlpha"/>
<feOffset dx="5" dy="5"/>
<feGaussianBlur stdDeviation="2"/>
<feComposite in2="hardAlpha" operator="out"/>
<feColorMatrix type="matrix" values="0 0 0 0 0.2825 0 0 0 0 0.862567 0 0 0 0 0.941667 0 0 0 0.74 0"/>
<feBlend mode="normal" in2="BackgroundImageFix" result="effect1_dropShadow_601_2681"/>
<feBlend mode="normal" in="SourceGraphic" in2="effect1_dropShadow_601_2681" result="shape"/>
</filter>
</defs>
</svg>
