<svg width="21" height="26" viewBox="0 0 21 26" fill="none" xmlns="http://www.w3.org/2000/svg">
<path d="M10.5 7.09091C11.795 7.09091 12.8333 6.02727 12.8333 4.72727C12.8333 4.27818 12.7167 3.86455 12.495 3.51L10.5 0L8.505 3.51C8.28333 3.86455 8.16667 4.27818 8.16667 4.72727C8.16667 6.02727 9.21667 7.09091 10.5 7.09091ZM15.8667 18.8973L14.6183 17.6327L13.3583 18.8973C11.8417 20.4336 9.18167 20.4455 7.65333 18.8973L6.405 17.6327L5.13333 18.8973C4.375 19.6655 3.36 20.0909 2.28667 20.0909C1.435 20.0909 0.653333 19.8191 0 19.37V24.8182C0 25.4682 0.525 26 1.16667 26H19.8333C20.475 26 21 25.4682 21 24.8182V19.37C20.3467 19.8191 19.565 20.0909 18.7133 20.0909C17.64 20.0909 16.625 19.6655 15.8667 18.8973ZM17.5 10.6364H11.6667V8.27273H9.33333V10.6364H3.5C1.56333 10.6364 0 12.22 0 14.1818V16.0018C0 17.2782 1.02667 18.3182 2.28667 18.3182C2.89333 18.3182 3.47667 18.0818 3.89667 17.6445L6.39333 15.1273L8.87833 17.6445C9.74167 18.5191 11.2467 18.5191 12.11 17.6445L14.6067 15.1273L17.0917 17.6445C17.5233 18.0818 18.095 18.3182 18.7017 18.3182C19.9617 18.3182 20.9883 17.2782 20.9883 16.0018V14.1818C21 12.22 19.4367 10.6364 17.5 10.6364Z" fill="#FD8680"/>
</svg>
