<svg width="89" height="86" viewBox="0 0 89 86" fill="none" xmlns="http://www.w3.org/2000/svg">
<path d="M37.2436 21.8446C38.7896 19.5565 38.188 16.4484 35.8998 14.9024C33.6117 13.3565 30.5036 13.9581 28.9576 16.2462L37.2436 21.8446ZM8.10079 56.0467L3.95779 53.2474L10.8571 60.2183L8.10079 56.0467ZM64.1006 19.0454L67.8941 22.3027L61.3443 14.8738L64.1006 19.0454ZM24.6007 65.0466L20.8073 61.7893L27.0734 69.3924L24.6007 65.0466ZM82.6006 32.0459L86.5861 35.0652L80.1279 27.7001L82.6006 32.0459ZM28.9576 16.2462L3.95779 53.2474L12.2438 58.8459L37.2436 21.8446L28.9576 16.2462ZM10.8571 60.2183L66.857 23.217L61.3443 14.8738L5.34443 51.875L10.8571 60.2183ZM60.3072 15.7881L20.8073 61.7893L28.3941 68.3039L67.8941 22.3027L60.3072 15.7881ZM27.0734 69.3924L85.0733 36.3917L80.1279 27.7001L22.1281 60.7008L27.0734 69.3924ZM78.6151 29.0267L53.6151 62.0275L61.5861 68.066L86.5861 35.0652L78.6151 29.0267Z" fill="#B893F5" fill-opacity="0.5"/>
</svg>
