<svg width="50" height="50" viewBox="0 0 50 50" fill="none" xmlns="http://www.w3.org/2000/svg">
<path d="M2.9106 48.1522C3.79732 49.1131 7.44967 47.4373 10.3325 46.0936C12.4926 45.0897 21.1372 41.5428 25.434 39.703C26.5942 39.2069 28.2817 38.5584 29.4965 36.9608C30.5747 35.5389 33.434 29.4998 27.6762 23.3826C21.8325 17.1717 15.8129 18.8866 13.5629 20.4803C12.2387 21.4178 11.1606 23.5311 10.6762 24.6053C8.62935 29.1444 5.71138 37.4608 4.52388 40.7303C3.65279 43.1405 2.0317 47.1991 2.9106 48.1522Z" fill="#FFC107"/>
<path d="M10.0977 25.9727C10.1523 26.6523 10.2891 27.7578 10.7578 29.8867C11.0781 31.3477 11.6016 32.8789 12.0273 33.8906C13.3047 36.9336 15.0977 38.1602 16.9141 39.1445C20 40.8164 22.0977 41.1289 22.0977 41.1289L19.582 42.1563C19.582 42.1563 18.0586 41.8398 15.9805 40.8164C14 39.8398 11.9375 38.1875 10.4297 34.9531C9.77734 33.5508 9.39844 32.1914 9.17969 31.1133C8.91016 29.7773 8.86719 29.0195 8.86719 29.0195L10.0977 25.9727ZM7.00781 33.8945C7.00781 33.8945 7.32031 36.4297 9.41406 39.6289C11.8672 43.3711 15.293 43.9844 15.293 43.9844L13.0156 44.9219C13.0156 44.9219 10.4727 44.1445 8.05469 40.8437C6.54688 38.7852 6.125 36.3242 6.125 36.3242L7.00781 33.8945ZM4.83984 39.9023C4.83984 39.9023 5.41016 42.0898 6.66016 43.7227C8.14844 45.6719 10.043 46.2383 10.043 46.2383L8.29687 47.0117C8.29687 47.0117 6.97266 46.7344 5.52344 44.8984C4.42187 43.5039 4.10938 41.9023 4.10938 41.9023L4.83984 39.9023Z" fill="#FF8F00"/>
<path opacity="0.44" d="M3.89015 45.457C3.81202 45.2813 3.81202 45.082 3.89405 44.9102L13.8433 24.2773L15.48 30.4297L5.01124 45.5508C4.72999 45.9727 4.09718 45.918 3.89015 45.457Z" fill="#FFFDE7"/>
<path d="M16.27 32.4959C20.9184 37.9334 26.2114 37.2538 27.9731 35.8788C29.7387 34.4998 31.1333 29.7616 26.5044 24.4139C21.6528 18.8123 16.1606 20.41 14.8911 21.6209C13.6216 22.8319 12.0044 27.5077 16.27 32.4959Z" fill="url(#paint0_linear_1116_2798)"/>
<path d="M32.2344 34.7344C30.5391 33.3125 29.6367 33.5664 28.4258 34.0703C26.8633 34.7188 24.4062 35.1992 21.0703 34.0703L22.0742 31.6523C24.0547 32.3203 25.4883 31.9961 26.7266 31.2656C28.3203 30.3281 30.5 29.043 33.8906 31.8906C35.3047 33.0781 36.7539 33.8672 37.8164 33.5078C38.5898 33.25 39 32.0977 39.207 31.1797C39.2266 31.0977 39.2578 30.8633 39.2812 30.6563C39.4687 29.2227 39.7812 26.1289 42.0859 24.5469C44.5508 22.8555 47.1406 22.8555 47.1406 22.8555L47.6094 27.5117C46.418 27.3359 45.5898 27.5781 44.8906 27.9648C42.2578 29.4297 44.5508 35.0547 40.4531 36.9453C36.5117 38.7773 33.2891 35.6172 32.2344 34.7344Z" fill="#03A9F4"/>
<path d="M17.7347 28.7969L16.0394 27.2773C19.1526 23.8008 18.3323 21.2461 17.7347 19.3867C17.6136 19.0117 17.5003 18.6563 17.4261 18.3164C17.1605 17.1133 17.1058 16.0664 17.1878 15.1523C15.9925 13.6641 15.4651 12.1055 15.43 12C14.7034 9.80078 15.2503 7.65625 16.5042 5.64453C19.0394 1.5625 23.6292 1.5625 23.6292 1.5625L25.1605 5.66016C23.9964 5.61328 20.18 5.67188 19.0081 7.51953C17.5276 9.84766 18.5003 11.2852 18.5706 11.4492C18.8558 11.0781 19.1448 10.7813 19.4026 10.5508C21.2737 8.89063 22.8987 8.65234 23.9339 8.74609C25.098 8.85156 26.1526 9.4375 26.9065 10.3984C27.7308 11.4531 28.0706 12.8242 27.8089 14.0703C27.555 15.2852 26.7464 16.3125 25.5315 16.9648C23.4105 18.1055 21.6448 17.9492 20.4612 17.5547C20.469 17.582 20.473 17.6133 20.4808 17.6406C20.5237 17.8359 20.6097 18.1094 20.7112 18.4258C21.4026 20.5664 22.6878 23.9648 17.7347 28.7969ZM20.6058 14.1367C20.8323 14.3008 21.0706 14.4375 21.3167 14.5352C22.137 14.8633 23.0316 14.7539 24.0472 14.207C24.6448 13.8867 24.7151 13.543 24.7386 13.4297C24.8089 13.0898 24.6917 12.6563 24.4378 12.332C24.2151 12.0469 23.9573 11.8984 23.6487 11.8672C23.0628 11.8164 22.2698 12.1875 21.4769 12.8945C21.098 13.2344 20.8089 13.6523 20.6058 14.1367Z" fill="#F44336"/>
<path d="M24.5195 29.4336L22.0938 29.3672C22.0938 29.3672 23.2461 22.8594 26.9766 21.7656C27.6758 21.5625 28.4414 21.3555 29.2109 21.2422C29.668 21.1719 30.3906 21.0664 30.7461 20.9336C30.8281 20.3203 30.5703 19.5391 30.2812 18.6523C30.0547 17.9648 29.8203 17.2578 29.6953 16.4844C29.4531 14.9766 29.8555 13.6445 30.8281 12.7266C32.0156 11.6133 33.9336 11.2578 36.0977 11.75C37.332 12.0313 38.2422 12.6367 39.043 13.168C40.1875 13.9297 40.8555 14.3164 42.2539 13.375C43.9453 12.2344 41.7344 7.76953 40.5586 5.19141L44.9453 3.36328C45.5352 4.65234 48.3828 11.2852 46.5039 15.0703C45.8711 16.3438 44.7812 17.1875 43.3516 17.5039C40.2422 18.1992 38.4219 16.9883 37.0937 16.1055C36.4648 15.6875 35.9141 15.3594 35.3164 15.1875C31.1641 14.0039 36.9609 20.1133 34.2461 22.8594C32.6172 24.5039 28.6367 24.9375 28.3789 25C25.8164 25.6172 24.5195 29.4336 24.5195 29.4336Z" fill="#F48FB1"/>
<path d="M17.1836 15.1523C17.1094 16.0117 17.0743 16.5234 17.2969 17.6406C18.3711 18.4297 20.711 18.4297 20.711 18.4297C20.6094 18.1133 20.5196 17.8398 20.4805 17.6445C20.4727 17.6172 20.4688 17.5859 20.461 17.5586C18.0821 16.3711 17.1836 15.1523 17.1836 15.1523Z" fill="#C92B27"/>
<path d="M12.3164 19L8.27734 17.0195L10.2891 14.1133L13.457 16.2109L12.3164 19Z" fill="#FFC107"/>
<path d="M6.36328 13.5156C4.30078 13.2383 2.19922 11.4883 1.96875 11.2891L3.99609 8.91016C4.60937 9.42969 5.91016 10.3008 6.78125 10.418L6.36328 13.5156Z" fill="#FB8C00"/>
<path d="M10.0039 8.30859L7.03516 7.33594C7.375 6.29688 7.46484 5.17578 7.28906 4.09375L10.375 3.59766C10.6289 5.16797 10.5 6.79688 10.0039 8.30859Z" fill="#03A9F4"/>
<path d="M28.5439 5.98633L31.5967 5.31836L32.4783 9.34805L29.4256 10.016L28.5439 5.98633Z" fill="#FB8C00"/>
<path d="M36.1172 6.94141L33.9688 4.67188C35.0938 3.60547 35.3516 2.21094 35.3516 2.19531L38.4375 2.69922C38.3984 2.94531 38.0039 5.15625 36.1172 6.94141Z" fill="#FFC107"/>
<path d="M37.3105 18.9762L40.0398 18.123L40.9719 21.1059L38.2426 21.959L37.3105 18.9762Z" fill="#FB8C00"/>
<path d="M38.1055 44.1523L35 43.7852C35.1328 42.6797 34.3086 41.3242 34.082 41.0234L36.582 39.1484C36.7695 39.3945 38.3984 41.6484 38.1055 44.1523Z" fill="#F44336"/>
<path d="M47.0195 40.1919C45.8516 40.0161 44.6563 39.9458 43.4766 39.9887L43.3711 36.8637C44.7422 36.8169 46.1289 36.895 47.4844 37.102L47.0195 40.1919Z" fill="#FB8C00"/>
<path d="M42.8184 44.4934L45.0137 42.2695L48.0352 45.2531L45.8398 47.4766L42.8184 44.4934Z" fill="#F48FB1"/>
<path d="M36.3687 24.7402L38.6266 27.3219L36.0449 29.5797L33.7871 26.998L36.3687 24.7402Z" fill="#F44336"/>
<defs>
<linearGradient id="paint0_linear_1116_2798" x1="29.0567" y1="24.1557" x2="17.429" y2="31.1323" gradientUnits="userSpaceOnUse">
<stop offset="0.024" stop-color="#8F4700"/>
<stop offset="1" stop-color="#703E2D"/>
</linearGradient>
</defs>
</svg>
