<svg width="30" height="30" viewBox="0 0 30 30" fill="none" xmlns="http://www.w3.org/2000/svg">
<path d="M0.824153 0.824153C1.08504 0.562889 1.39488 0.355622 1.73595 0.214206C2.07701 0.0727902 2.44261 0 2.81183 0C3.18105 0 3.54665 0.0727902 3.88771 0.214206C4.22878 0.355622 4.53861 0.562889 4.79951 0.824153L15.0004 11.0213L25.2013 0.824153C25.4623 0.563127 25.7722 0.35607 26.1133 0.214804C26.4543 0.0735382 26.8199 0.000829778 27.189 0.000829771C27.5581 0.000829763 27.9237 0.0735382 28.2647 0.214804C28.6058 0.35607 28.9156 0.563127 29.1767 0.824153C29.4377 1.08518 29.6448 1.39506 29.786 1.73611C29.9273 2.07715 30 2.44268 30 2.81183C30 3.18098 29.9273 3.54651 29.786 3.88755C29.6448 4.2286 29.4377 4.53848 29.1767 4.79951L18.9795 15.0004L29.1767 25.2013C29.7038 25.7285 30 26.4435 30 27.189C30 27.9345 29.7038 28.6495 29.1767 29.1767C28.6495 29.7038 27.9345 30 27.189 30C26.4435 30 25.7285 29.7038 25.2013 29.1767L15.0004 18.9795L4.79951 29.1767C4.27234 29.7038 3.55735 30 2.81183 30C2.06631 30 1.35132 29.7038 0.824153 29.1767C0.296988 28.6495 0.000829771 27.9345 0.000829771 27.189C0.000829771 26.4435 0.296988 25.7285 0.824153 25.2013L11.0213 15.0004L0.824153 4.79951C0.562889 4.53861 0.355622 4.22878 0.214206 3.88771C0.0727902 3.54665 0 3.18105 0 2.81183C0 2.44261 0.0727902 2.07701 0.214206 1.73595C0.355622 1.39488 0.562889 1.08504 0.824153 0.824153Z" fill="#9D9D9D"/>
</svg>
