<svg width="44" height="44" viewBox="0 0 44 44" fill="none" xmlns="http://www.w3.org/2000/svg">
<path d="M21.9374 38.1018C21.6969 38.1032 21.4584 38.0582 21.2356 37.9694C21.0129 37.8807 20.8103 37.7499 20.6395 37.5846L6.43543 23.709C4.65373 21.9526 3.65433 19.5812 3.65433 17.1101C3.65433 14.6389 4.65373 12.2675 6.43543 10.5111C8.23107 8.7642 10.6634 7.7832 13.1993 7.7832C15.7351 7.7832 18.1675 8.7642 19.9631 10.5111L21.9374 12.4373L23.9118 10.5111C25.7074 8.7642 28.1398 7.7832 30.6756 7.7832C33.2114 7.7832 35.6438 8.7642 37.4394 10.5111C39.2211 12.2675 40.2205 14.6389 40.2205 17.1101C40.2205 19.5812 39.2211 21.9526 37.4394 23.709L23.2354 37.5846C23.0646 37.7499 22.862 37.8807 22.6392 37.9694C22.4165 38.0582 22.178 38.1032 21.9374 38.1018Z" fill="#FD8680"/>
</svg>
