<svg width="28" height="28" viewBox="0 0 28 28" fill="none" xmlns="http://www.w3.org/2000/svg">
<path d="M19.7312 20.9685L24.7564 25.9936C24.9214 26.153 25.1424 26.2412 25.3719 26.2392C25.6013 26.2372 25.8207 26.1452 25.983 25.983C26.1452 25.8207 26.2372 25.6013 26.2392 25.3718C26.2412 25.1424 26.153 24.9214 25.9936 24.7564L3.24363 2.00636C3.0786 1.84698 2.85757 1.75878 2.62815 1.76078C2.39873 1.76277 2.17927 1.85479 2.01703 2.01702C1.8548 2.17926 1.76278 2.39872 1.76079 2.62814C1.75879 2.85756 1.84699 3.07859 2.00638 3.24362L3.969 5.20624C3.30369 5.52897 2.7427 6.03252 2.35027 6.65925C1.95783 7.28597 1.7498 8.01054 1.75 8.74999V19.25C1.75 20.2943 2.16484 21.2958 2.90327 22.0342C3.64169 22.7726 4.64321 23.1875 5.6875 23.1875H16.1875C16.927 23.1877 17.6515 22.9797 18.2782 22.5872C18.905 22.1948 19.4085 21.6338 19.7312 20.9685ZM18.3487 19.586C18.2686 20.1017 18.0067 20.5717 17.6104 20.9112C17.214 21.2508 16.7094 21.4374 16.1875 21.4375H5.6875C5.10734 21.4375 4.55094 21.207 4.1407 20.7968C3.73047 20.3865 3.5 19.8302 3.5 19.25V8.74999C3.50004 8.22824 3.68656 7.72368 4.02591 7.32737C4.36527 6.93106 4.8351 6.66909 5.35062 6.58874L18.3487 19.586ZM18.375 8.74999V15.2819L23.7475 20.6535L23.8 20.6937C24.8098 21.4506 26.25 20.7305 26.25 19.4687V8.53124C26.25 7.26862 24.8098 6.54849 23.8 7.30624L20.125 10.0625V8.74999C20.125 7.7057 19.7102 6.70418 18.9717 5.96576C18.2333 5.22733 17.2318 4.81249 16.1875 4.81249H7.90562L9.65562 6.56249H16.1875C16.7677 6.56249 17.3241 6.79296 17.7343 7.20319C18.1445 7.61343 18.375 8.16983 18.375 8.74999ZM20.125 12.25L24.5 8.96874V19.0312L20.125 15.75V12.25Z" fill="black"/>
</svg>
