<svg width="28" height="28" viewBox="0 0 28 28" fill="none" xmlns="http://www.w3.org/2000/svg">
<path d="M3.5 8.75C3.5 8.05381 3.77656 7.38613 4.26884 6.89384C4.76113 6.40156 5.42881 6.125 6.125 6.125H16.625C17.3212 6.125 17.9889 6.40156 18.4812 6.89384C18.9734 7.38613 19.25 8.05381 19.25 8.75V19.25C19.25 19.9462 18.9734 20.6139 18.4812 21.1062C17.9889 21.5984 17.3212 21.875 16.625 21.875H6.125C5.42881 21.875 4.76113 21.5984 4.26884 21.1062C3.77656 20.6139 3.5 19.9462 3.5 19.25V8.75ZM6.125 4.375C4.96468 4.375 3.85188 4.83594 3.03141 5.65641C2.21094 6.47688 1.75 7.58968 1.75 8.75V19.25C1.75 20.4103 2.21094 21.5231 3.03141 22.3436C3.85188 23.1641 4.96468 23.625 6.125 23.625H16.625C17.1995 23.625 17.7684 23.5118 18.2992 23.292C18.83 23.0721 19.3123 22.7498 19.7186 22.3436C20.1248 21.9373 20.4471 21.455 20.667 20.9242C20.8868 20.3934 21 19.8245 21 19.25V18.375L24.15 20.7375C24.345 20.8837 24.5769 20.9728 24.8196 20.9947C25.0624 21.0166 25.3065 20.9704 25.5245 20.8614C25.7425 20.7524 25.9258 20.5849 26.054 20.3775C26.1821 20.1702 26.25 19.9312 26.25 19.6875V8.32125C26.25 8.0775 26.1821 7.83857 26.054 7.63123C25.9258 7.42388 25.7425 7.25632 25.5245 7.14731C25.3065 7.03831 25.0624 6.99216 24.8196 7.01405C24.5769 7.03594 24.345 7.125 24.15 7.27125L21 9.625V8.75C21 8.17547 20.8868 7.60656 20.667 7.07576C20.4471 6.54496 20.1248 6.06266 19.7186 5.65641C19.3123 5.25015 18.83 4.92789 18.2992 4.70803C17.7684 4.48816 17.1995 4.375 16.625 4.375H6.125ZM21 11.8125L24.5 9.1945V18.8125L21 16.1875V11.8125Z" fill="black"/>
</svg>
