<svg width="24" height="24" viewBox="0 0 24 24" fill="none" xmlns="http://www.w3.org/2000/svg">
<path d="M7.51871 8.57203L0.238708 1.2977C0.165021 1.22909 0.105919 1.14635 0.0649274 1.05442C0.0239354 0.962497 0.00189351 0.863261 0.000116722 0.762636C-0.00166006 0.662012 0.0168645 0.562061 0.0545855 0.468745C0.0923065 0.37543 0.148451 0.290662 0.21967 0.219499C0.290889 0.148335 0.375723 0.0922346 0.469111 0.054543C0.562499 0.0168513 0.662528 -0.00165877 0.763231 0.000116631C0.863934 0.00189203 0.963247 0.0239167 1.05525 0.0648768C1.14725 0.105837 1.23005 0.164893 1.29871 0.238522L23.7987 22.721C23.9312 22.8631 24.0033 23.051 23.9999 23.2451C23.9965 23.4393 23.9177 23.6245 23.7803 23.7618C23.6429 23.8991 23.4575 23.9778 23.2632 23.9812C23.0689 23.9846 22.8809 23.9125 22.7387 23.7802L17.3887 18.4343C16.1099 19.5945 14.4886 20.3082 12.7687 20.4678V23.2506C12.7687 23.4493 12.6897 23.64 12.549 23.7805C12.4084 23.921 12.2176 24 12.0187 24C11.8198 24 11.629 23.921 11.4884 23.7805C11.3477 23.64 11.2687 23.4493 11.2687 23.2506V20.4678C9.28555 20.2812 7.44339 19.362 6.10255 17.8901C4.76171 16.4182 4.01865 14.4993 4.01871 12.509V11.7595C4.01871 11.5608 4.09773 11.3702 4.23838 11.2296C4.37903 11.0891 4.5698 11.0101 4.76871 11.0101C4.96762 11.0101 5.15839 11.0891 5.29904 11.2296C5.43969 11.3702 5.51871 11.5608 5.51871 11.7595V12.509C5.51875 13.7597 5.88024 14.9839 6.55973 16.0344C7.23922 17.0848 8.20781 17.9169 9.34913 18.4306C10.4904 18.9443 11.7559 19.1178 12.9935 18.9302C14.2311 18.7426 15.3882 18.202 16.3257 17.3732L14.9087 15.9563C14.2523 16.5058 13.4526 16.8568 12.6034 16.968C11.7543 17.0792 10.8911 16.946 10.1151 16.584C9.33914 16.222 8.68265 15.6463 8.22273 14.9245C7.76282 14.2026 7.51858 13.3647 7.51871 12.509V8.57203ZM13.8407 14.8901L9.01871 10.0719V12.509C9.01877 13.068 9.17527 13.6158 9.47052 14.0907C9.76578 14.5655 10.188 14.9484 10.6896 15.196C11.1911 15.4437 11.752 15.5463 12.3088 15.4922C12.8656 15.4382 13.3963 15.2296 13.8407 14.8901ZM7.52171 4.33733L9.01871 5.83216V4.51519C9.01871 4.12153 9.09631 3.73173 9.24707 3.36803C9.39783 3.00434 9.61881 2.67388 9.89739 2.39552C10.176 2.11716 10.5067 1.89636 10.8707 1.74571C11.2346 1.59506 11.6247 1.51753 12.0187 1.51753C12.4127 1.51753 12.8028 1.59506 13.1668 1.74571C13.5307 1.89636 13.8615 2.11716 14.14 2.39552C14.4186 2.67388 14.6396 3.00434 14.7903 3.36803C14.9411 3.73173 15.0187 4.12153 15.0187 4.51519V11.8275L16.4557 13.2634C16.4967 13.0186 16.5187 12.7658 16.5187 12.509V4.51519C16.5225 3.33557 16.0622 2.20172 15.237 1.35808C14.4119 0.514441 13.2881 0.0285811 12.1077 0.00524757C10.9274 -0.0180859 9.78522 0.422976 8.92734 1.23335C8.06947 2.04372 7.56464 3.15849 7.52171 4.33733ZM18.0717 14.8791L19.2097 16.0152C19.7277 14.9561 20.0187 13.767 20.0187 12.508V11.7605C20.0187 11.5618 19.9397 11.3712 19.799 11.2306C19.6584 11.0901 19.4676 11.0111 19.2687 11.0111C19.0698 11.0111 18.879 11.0901 18.7384 11.2306C18.5977 11.3712 18.5187 11.5618 18.5187 11.7605V12.509C18.5187 13.3453 18.3607 14.1447 18.0727 14.8791" fill="black"/>
</svg>
