<svg width="28" height="26" viewBox="0 0 28 26" fill="none" xmlns="http://www.w3.org/2000/svg">
<path d="M14 0C12.8065 0 11.6619 0.474106 10.818 1.31802C9.97411 2.16193 9.5 3.30653 9.5 4.5V12.5C9.5 13.0909 9.6164 13.6761 9.84254 14.2221C10.0687 14.768 10.4002 15.2641 10.818 15.682C11.2359 16.0998 11.732 16.4313 12.2779 16.6575C12.8239 16.8836 13.4091 17 14 17C14.5909 17 15.1761 16.8836 15.7221 16.6575C16.268 16.4313 16.7641 16.0998 17.182 15.682C17.5998 15.2641 17.9313 14.768 18.1575 14.2221C18.3836 13.6761 18.5 13.0909 18.5 12.5V4.5C18.5 3.30653 18.0259 2.16193 17.182 1.31802C16.3381 0.474106 15.1935 0 14 0ZM11 4.5C11 4.10603 11.0776 3.71593 11.2284 3.35195C11.3791 2.98797 11.6001 2.65726 11.8787 2.37868C12.1573 2.1001 12.488 1.87913 12.8519 1.72836C13.2159 1.5776 13.606 1.5 14 1.5C14.394 1.5 14.7841 1.5776 15.1481 1.72836C15.512 1.87913 15.8427 2.1001 16.1213 2.37868C16.3999 2.65726 16.6209 2.98797 16.7716 3.35195C16.9224 3.71593 17 4.10603 17 4.5V12.5C17 12.894 16.9224 13.2841 16.7716 13.6481C16.6209 14.012 16.3999 14.3427 16.1213 14.6213C15.8427 14.8999 15.512 15.1209 15.1481 15.2716C14.7841 15.4224 14.394 15.5 14 15.5C13.606 15.5 13.2159 15.4224 12.8519 15.2716C12.488 15.1209 12.1573 14.8999 11.8787 14.6213C11.6001 14.3427 11.3791 14.012 11.2284 13.6481C11.0776 13.2841 11 12.894 11 12.5V4.5ZM7.5 11.75C7.5 11.5511 7.42098 11.3603 7.28033 11.2197C7.13968 11.079 6.94891 11 6.75 11C6.55109 11 6.36032 11.079 6.21967 11.2197C6.07902 11.3603 6 11.5511 6 11.75V12.5C5.99994 14.4919 6.743 16.4122 8.08384 17.8853C9.42468 19.3584 11.2668 20.2783 13.25 20.465V23.25C13.25 23.4489 13.329 23.6397 13.4697 23.7803C13.6103 23.921 13.8011 24 14 24C14.1989 24 14.3897 23.921 14.5303 23.7803C14.671 23.6397 14.75 23.4489 14.75 23.25V20.465C16.7332 20.2783 18.5753 19.3584 19.9162 17.8853C21.257 16.4122 22.0001 14.4919 22 12.5V11.75C22 11.5511 21.921 11.3603 21.7803 11.2197C21.6397 11.079 21.4489 11 21.25 11C21.0511 11 20.8603 11.079 20.7197 11.2197C20.579 11.3603 20.5 11.5511 20.5 11.75V12.5C20.5 14.2239 19.8152 15.8772 18.5962 17.0962C17.3772 18.3152 15.7239 19 14 19C12.2761 19 10.6228 18.3152 9.40381 17.0962C8.18482 15.8772 7.5 14.2239 7.5 12.5V11.75Z" fill="black"/>
</svg>
