<svg width="29" height="29" viewBox="0 0 29 29" fill="none" xmlns="http://www.w3.org/2000/svg">
<path d="M18.1885 1.31798C19.1098 0.533063 20.5748 1.15339 20.5748 2.32804V27.6068C20.5748 28.7822 19.1098 29.4025 18.1885 28.6176L11.4799 22.8988C10.7674 22.2911 9.8436 21.9549 8.88594 21.9548H5.04197C3.90367 21.9548 2.81199 21.5253 2.00709 20.7609C1.20219 19.9965 0.75 18.9598 0.75 17.8788V12.056C0.75 9.80451 2.67117 7.98004 5.04197 7.98004H8.88594C9.8436 7.97987 10.7674 7.64365 11.4799 7.03597L18.1885 1.31798ZM18.531 3.6339L12.8452 8.48157C11.7574 9.40853 10.3474 9.92115 8.88594 9.92097H5.04197C4.44572 9.92097 3.87389 10.1459 3.45227 10.5463C3.03066 10.9467 2.7938 11.4898 2.7938 12.056V17.8788C2.7938 18.445 3.03066 18.9881 3.45227 19.3885C3.87389 19.7889 4.44572 20.0138 5.04197 20.0138H8.88594C10.3475 20.0139 11.7576 20.5268 12.8452 21.454L18.531 26.3024V3.6339ZM24.1179 7.51421C24.2092 7.42074 24.319 7.34527 24.441 7.2921C24.563 7.23894 24.6949 7.20913 24.829 7.20437C24.9632 7.19961 25.097 7.22 25.2229 7.26437C25.3487 7.30874 25.4641 7.37623 25.5625 7.46297L25.5633 7.46453L25.5649 7.46608L25.569 7.46996L25.5805 7.47928L25.6148 7.51111C25.783 7.6712 25.9439 7.83801 26.0972 8.01109C26.3955 8.34959 26.7888 8.84336 27.1804 9.48077C28.2078 11.1447 28.7496 13.0385 28.75 14.9674C28.75 17.3144 27.9627 19.18 27.1804 20.4548C26.788 21.0914 26.3955 21.586 26.0963 21.9245C25.9431 22.0976 25.7822 22.2644 25.614 22.4245L25.5985 22.4392L25.5805 22.4555L25.569 22.4656L25.5649 22.4695L25.5633 22.4718H25.5617C25.3627 22.6429 25.1009 22.7327 24.8327 22.7219C24.5646 22.7112 24.3117 22.6007 24.1286 22.4143C23.9455 22.2279 23.847 21.9806 23.8544 21.7258C23.8617 21.471 23.9743 21.2292 24.1678 21.0526L24.1694 21.0511L24.1825 21.0386C24.1964 21.0254 24.2201 21.0037 24.252 20.9719C24.3158 20.909 24.4122 20.8096 24.53 20.6761C24.7671 20.4074 25.09 20.0037 25.4137 19.4766C26.2593 18.1095 26.7055 16.5529 26.7062 14.9674C26.7062 13.0443 26.0628 11.5133 25.4145 10.459C25.0908 9.93106 24.7687 9.52735 24.5316 9.2595C24.4207 9.13422 24.3045 9.01326 24.1833 8.89693L24.1694 8.88374L24.1703 8.88451C23.9722 8.70927 23.8555 8.46655 23.8456 8.20964C23.8358 7.95273 23.9338 7.70262 24.1179 7.51421ZM25.5625 7.46297L25.6148 7.51111C25.5957 7.49676 25.5782 7.48064 25.5625 7.46297Z" fill="black"/>
</svg>
