<svg width="40" height="40" viewBox="0 0 40 40" fill="none" xmlns="http://www.w3.org/2000/svg">
<g id="gravity-ui:cherry" clip-path="url(#clip0_360_7789)">
<g id="Group">
<g id="Clip path group">
<mask id="mask0_360_7789" style="mask-type:luminance" maskUnits="userSpaceOnUse" x="0" y="0" width="40" height="40">
<g id="gravityUiCherry0">
<path id="Vector" d="M0 0H40V40H0V0Z" fill="white"/>
</g>
</mask>
<g mask="url(#mask0_360_7789)">
<g id="Group_2">
<path id="Vector_2" fill-rule="evenodd" clip-rule="evenodd" d="M19.2756 0.145477C15.2256 1.83548 12.3806 4.45548 10.7406 7.74548L10.6581 7.91048C9.72374 9.8821 9.19333 12.0207 9.09809 14.2005C9.03309 15.433 9.08559 16.6955 9.24309 17.9755L9.24809 18.0005L9.25309 18.0405C7.01917 18.8134 5.13108 20.3524 3.92351 22.3845C2.71595 24.4167 2.26692 26.8108 2.65602 29.1424C3.04513 31.474 4.24723 33.5925 6.04923 35.1224C7.85123 36.6524 10.1367 37.4948 12.5006 37.5005C14.1389 37.5039 15.7527 37.1032 17.1991 36.334C18.6456 35.5648 19.88 34.4507 20.7931 33.0905C20.8881 32.9505 20.9806 32.8055 21.0681 32.658C22.8701 34.1709 25.1477 35.0003 27.5006 35.0005C28.9624 34.9988 30.4061 34.6767 31.73 34.0568C33.0539 33.4369 34.2258 32.5343 35.1631 31.4125C36.1005 30.2907 36.7805 28.9771 37.1552 27.5641C37.53 26.1511 37.5904 24.6732 37.3322 23.2343C37.074 21.7955 36.5035 20.4307 35.6609 19.2362C34.8182 18.0416 33.7239 17.0464 32.4551 16.3205C31.1862 15.5946 29.7736 15.1557 28.3167 15.0348C26.8599 14.9138 25.3943 15.1138 24.0231 15.6205C23.375 15.4106 22.7494 15.1368 22.1556 14.803C21.7854 14.5929 21.4318 14.3547 21.0981 14.0905C20.2183 13.4009 19.5169 12.5101 19.0531 11.493C18.2956 9.81798 18.1656 7.69548 18.9331 5.30048C19.2581 6.20548 19.6631 7.03298 20.1331 7.78798C21.3265 9.71945 23.0741 11.2466 25.1481 12.1705C25.8981 12.513 26.6856 12.778 27.5006 12.9755C28.3727 13.185 29.2608 13.3213 30.1556 13.383C31.0556 13.4455 31.9756 13.443 32.9056 13.383L32.9656 13.378C33.7505 13.3241 34.5323 13.2315 35.3081 13.1005C35.5511 13.0601 35.7837 12.9723 35.9927 12.8421C36.2017 12.7118 36.3831 12.5416 36.5263 12.3413C36.6695 12.1409 36.7719 11.9143 36.8276 11.6744C36.8832 11.4345 36.891 11.1859 36.8506 10.943C36.7069 10.0645 36.4835 9.20091 36.1831 8.36298C35.6606 6.88628 34.8394 5.53312 33.7706 4.38798C32.8869 3.46057 31.8565 2.68517 30.7206 2.09298C27.6706 0.477977 23.8831 0.00297728 20.0456 0.000477284C19.7824 -0.00545353 19.5184 0.0439458 19.2756 0.145477ZM23.2881 5.76298C23.9682 6.88193 24.9269 7.80533 26.0706 8.44298L26.1206 8.46798C26.6881 8.78048 27.3106 9.03298 27.9831 9.22548C29.3481 9.61548 30.9181 9.75548 32.6581 9.64048C32.107 8.02574 31.0132 6.65194 29.5631 5.75298C29.3692 5.63043 29.1708 5.51534 28.9681 5.40798C28.4013 5.11103 27.8099 4.86344 27.2006 4.66798C25.8256 4.22548 24.2506 3.95548 22.5006 3.83298C22.4631 3.8304 22.4256 3.8279 22.3881 3.82548C22.4108 3.89237 22.4341 3.95904 22.4581 4.02548C22.6931 4.67048 22.9706 5.24798 23.2881 5.76298ZM14.6681 8.40798C14.6681 8.90798 14.6956 9.40548 14.7581 9.89298C14.8945 11.0085 15.2022 12.0964 15.6706 13.118C16.1056 14.0595 16.6777 14.9315 17.3681 15.7055C17.9056 16.313 18.5181 16.863 19.1956 17.353C19.5456 17.603 19.9156 17.8405 20.3006 18.0605C19.7786 18.6015 19.3191 19.1994 18.9306 19.843C17.2512 18.4319 15.1543 17.6123 12.9631 17.5105C12.8904 16.9346 12.8445 16.3556 12.8256 15.7755C12.8107 15.2829 12.8182 14.7899 12.8481 14.298C12.927 12.6656 13.3227 11.0642 14.0131 9.58298L14.0331 9.54298C14.2219 9.15228 14.4339 8.77326 14.6681 8.40798ZM21.5206 23.1755C22.3393 24.8792 22.6559 26.7809 22.4331 28.658C23.1844 29.6983 24.2378 30.4822 25.4501 30.903C26.6624 31.3239 27.9749 31.3614 29.2092 31.0104C30.4436 30.6595 31.54 29.937 32.3495 28.9413C33.159 27.9455 33.6424 26.7247 33.7339 25.4447C33.8255 24.1647 33.5209 22.8875 32.8613 21.7867C32.2018 20.6858 31.2194 19.8147 30.0476 19.2916C28.8758 18.7685 27.5713 18.6187 26.3115 18.8628C25.0516 19.1068 23.8974 19.7327 23.0056 20.6555L23.0006 20.6605C22.3142 21.3691 21.8068 22.2313 21.5206 23.1755ZM18.7506 27.593V27.5005C18.7384 25.8469 18.0713 24.2656 16.8956 23.1028C15.7198 21.9401 14.1312 21.2907 12.4776 21.2968C10.8241 21.3029 9.24028 21.9641 8.07318 23.1355C6.90607 24.3069 6.25076 25.8931 6.25076 27.5467C6.25076 29.2003 6.90607 30.7865 8.07318 31.958C9.24028 33.1294 10.8241 33.7906 12.4776 33.7967C14.1312 33.8028 15.7198 33.1534 16.8956 31.9906C18.0713 30.8278 18.7384 29.2465 18.7506 27.593Z" fill="#9D9D9D"/>
</g>
</g>
</g>
</g>
</g>
<defs>
<clipPath id="clip0_360_7789">
<rect width="40" height="40" fill="white"/>
</clipPath>
</defs>
</svg>
