<svg width="52" height="52" viewBox="0 0 52 52" fill="none" xmlns="http://www.w3.org/2000/svg">
<path d="M14.3332 45.5C13.3654 45.5 12.5399 45.1591 11.8567 44.4773C11.1749 43.7956 10.834 42.9701 10.834 42.0008V22.9992C10.834 22.0314 11.1749 21.2059 11.8567 20.5227C12.5384 19.8409 13.3639 19.5 14.3332 19.5H17.334V15.1667C17.334 12.753 18.1747 10.7048 19.856 9.022C21.5373 7.33922 23.5855 6.49856 26.0007 6.5C28.4143 6.5 30.4625 7.34067 32.1453 9.022C33.8281 10.7033 34.6688 12.7516 34.6673 15.1667V19.5H37.6682C38.6359 19.5 39.4614 19.8409 40.1447 20.5227C40.8264 21.2044 41.1673 22.0299 41.1673 22.9992V42.0008C41.1673 42.9686 40.8264 43.7941 40.1447 44.4773C39.4629 45.1591 38.6374 45.5 37.6682 45.5H14.3332ZM14.3332 43.3333H37.6682C38.0567 43.3333 38.3759 43.2084 38.6258 42.9585C38.8757 42.7086 39.0007 42.3894 39.0007 42.0008V22.9992C39.0007 22.6106 38.8757 22.2914 38.6258 22.0415C38.3759 21.7916 38.0567 21.6667 37.6682 21.6667H14.3332C13.9446 21.6667 13.6254 21.7916 13.3755 22.0415C13.1256 22.2914 13.0007 22.6106 13.0007 22.9992V42.0008C13.0007 42.3894 13.1256 42.7086 13.3755 42.9585C13.6254 43.2084 13.9446 43.3333 14.3332 43.3333ZM26.0007 35.75C26.915 35.75 27.6849 35.4366 28.3103 34.8097C28.9372 34.1842 29.2507 33.4143 29.2507 32.5C29.2507 31.5857 28.9372 30.8158 28.3103 30.1903C27.6849 29.5634 26.915 29.25 26.0007 29.25C25.0863 29.25 24.3164 29.5634 23.691 30.1903C23.0641 30.8158 22.7507 31.5857 22.7507 32.5C22.7507 33.4143 23.0641 34.1842 23.691 34.8097C24.3164 35.4366 25.0863 35.75 26.0007 35.75ZM19.5007 19.5H32.5007V15.1667C32.5007 13.3611 31.8687 11.8264 30.6048 10.5625C29.3409 9.29861 27.8062 8.66667 26.0007 8.66667C24.1951 8.66667 22.6604 9.29861 21.3965 10.5625C20.1326 11.8264 19.5007 13.3611 19.5007 15.1667V19.5Z" fill="#FD8680"/>
</svg>
